<svg width="48" height="51" viewBox="0 0 48 51" fill="none" xmlns="http://www.w3.org/2000/svg">
<g id="Layer_1" clip-path="url(#clip0_8_278)">
<path id="Vector" d="M5.40381 2.75326C8.42983 2.65971 11.3366 3.29581 14.1954 4.21565C14.5593 4.33258 14.9108 4.50719 15.3104 4.46198C17.2276 5.05131 18.9373 6.06625 20.6268 7.11238C21.8797 7.99792 23.1372 8.87879 24.2367 9.96234C25.68 11.1535 26.8353 12.6127 27.9937 14.0705C30.95 18.4935 33.8227 22.9711 36.7187 27.4331C37.2045 28.143 37.42 29.0053 37.3258 29.8621C37.2391 30.3836 37.0422 30.8803 36.7482 31.3184C36.4543 31.7566 36.0703 32.1261 35.6223 32.4019C34.7535 32.1664 34.2687 31.4072 33.6416 30.8631C31.3446 28.8497 28.8038 27.1373 26.0796 25.7665C25.2371 25.3752 24.4071 24.9527 23.5274 24.6518C22.6478 24.3509 22.1631 24.7859 22.4062 25.7182C22.6571 26.677 23.1496 27.5376 23.56 28.434C23.8108 28.9828 24.2894 29.4584 24.1794 30.149C23.9022 30.3439 23.6916 30.149 23.4887 30.0087C21.2866 28.4964 18.9977 27.1244 16.8296 25.5529C16.4517 25.2785 15.9391 25.1055 15.8555 24.5333C15.9577 24.2371 16.2318 24.1965 16.475 24.1498C17.5838 23.9315 18.5099 23.3562 19.3833 22.6749C21.8332 20.5764 22.6354 17.873 21.8363 14.8282C21.0279 11.7475 18.8816 9.89218 15.7456 9.35898C12.9441 8.89126 10.6459 9.89997 8.79686 12.0234C8.32143 12.3773 8.31058 13.1802 7.58582 13.294C7.23428 13.2052 7.13207 12.9027 7.02057 12.6158C5.98778 9.91191 5.37155 7.06495 5.19319 4.17356C5.16842 3.69805 5.07085 3.18667 5.40381 2.75326Z" fill="#E8F6FC"/>
<path id="Vector_2" d="M15.9298 24.5473C16.6407 25.3019 17.5296 25.8242 18.3705 26.401C20.1483 27.6233 21.9618 28.7926 23.7644 29.9868C23.8994 30.0603 24.0403 30.1224 24.1856 30.1724C24.4721 30.1583 24.5836 30.3797 24.6966 30.5777C26.1028 33.0317 27.8527 35.2253 29.725 37.3269C29.8938 37.5171 30.0983 37.6933 30.0766 37.9879C29.8177 38.4196 29.4741 38.7935 29.0667 39.0868C28.6592 39.3801 28.1966 39.5865 27.7072 39.6935C26.7625 39.8619 25.9108 39.5766 25.1442 39.0699C20.7027 36.1233 16.1931 33.2796 11.826 30.2145C9.25631 28.282 7.02549 25.9307 5.2257 23.2579C4.03779 21.4722 3.05975 19.5536 2.31118 17.5409C2.46604 16.8798 2.04635 16.3513 1.87136 15.7807C0.931171 12.7181 0.503089 9.51954 0.604586 6.31566C0.631148 5.36214 1.02543 4.45649 1.7039 3.79063C2.38237 3.12476 3.29171 2.751 4.23922 2.74854C4.62483 2.74854 5.01353 2.74854 5.39759 2.74854C5.38366 6.16599 6.06815 9.45248 7.25595 12.6376C7.34577 12.8746 7.38449 13.1537 7.72054 13.1895C7.96058 13.5107 7.72054 13.7789 7.61833 14.0548C5.80488 19.0812 9.22426 24.315 14.5113 24.354C14.9867 24.3618 15.4931 24.2183 15.9298 24.5473Z" fill="#BFE6F2"/>
<path id="Vector_3" d="M27.8264 14.1469C26.6999 12.6989 25.4701 11.3353 24.1469 10.0669C24.3603 9.45122 24.7789 8.92896 25.3316 8.5889C26.349 7.92163 26.8802 7.01425 27.0738 5.81222C27.2649 4.73889 27.7208 3.73106 28.3994 2.88119C28.5543 2.67696 28.6999 2.45869 28.9724 2.39165C29.643 2.06269 30.154 1.48739 30.8525 1.19273C33.5734 0.0452668 36.0187 0.495838 38.2239 2.42907C39.3467 2.99968 39.85 4.0879 40.0374 5.18392C40.3162 6.7991 41.1307 7.90136 42.3031 8.98179C44.3627 10.8807 44.8149 13.7587 43.7185 16.339C43.3192 17.2866 42.723 18.1371 41.9701 18.8335C40.3673 20.1665 38.5275 20.6529 36.4787 20.3925C35.805 20.1493 35.3389 19.613 34.8294 19.1546C32.9841 17.4717 30.9462 16.0161 28.7587 14.8189C28.4134 14.624 28.1733 14.3153 27.8264 14.1469Z" fill="#827AA0"/>
<path id="Vector_4" d="M23.8387 50.4171C16.6298 50.1537 10.6599 47.3193 6.02946 41.7114C6.21065 41.161 6.66129 40.8367 7.08717 40.5218C7.42266 40.2831 7.70444 39.9759 7.91417 39.6202C8.12389 39.2646 8.25685 38.8684 8.30439 38.4576C8.5112 36.9884 9.19703 35.63 10.2541 34.5958C11.1461 33.7056 12.1853 33.0913 13.4412 32.8809C13.7277 32.9323 13.8609 33.1677 14.0034 33.3798C16.8596 37.5992 20.5389 41.1893 24.8174 43.9315C25.0823 44.103 25.3316 44.2822 25.4369 44.6003C25.7761 45.9302 25.615 47.2164 25.1179 48.4761C24.7896 49.1902 24.4411 49.8886 23.8387 50.4171Z" fill="#827AA0"/>
<path id="Vector_5" d="M25.2371 44.4568C22.2065 42.5425 19.4418 40.2315 17.0154 37.5845C15.7099 36.1517 14.5918 34.5739 13.4737 32.9962C12.7428 32.1325 11.9886 31.2812 11.8957 30.0698C16.2318 32.9385 20.568 35.7962 24.8933 38.6836C25.7606 39.2636 26.651 39.6331 27.701 39.5302C28.1656 39.6861 28.4474 40.0649 28.7525 40.4017C29.4556 41.1734 30.3012 41.5507 31.3418 41.4837C31.4955 41.4713 31.6495 41.5026 31.7863 41.5741C32.429 42.165 32.7929 42.9601 33.2885 43.6586C33.9266 44.6804 34.5052 45.7387 35.0214 46.8281C35.1484 47.1056 35.3311 47.366 35.2676 47.6981C34.8949 47.9692 34.4745 48.1665 34.0287 48.2796C33.1723 48.3747 32.4445 47.9319 31.6732 47.6887C30.572 47.3422 29.5009 46.9053 28.4707 46.3822C27.5941 45.8911 26.6619 45.5045 25.8148 44.9557C25.5918 44.817 25.3517 44.7109 25.2371 44.4568Z" fill="#EE4495"/>
<path id="Vector_6" d="M27.8264 14.147C28.7881 14.4588 29.6058 15.0434 30.4591 15.5688C32.5869 16.8909 34.4856 18.5155 36.3222 20.2086C37.3939 20.72 37.9715 21.7552 38.7102 22.5908C40.6166 24.747 42.1389 27.1838 43.5001 29.722C44.379 31.474 45.1144 33.2953 45.6992 35.1677C45.8215 35.5622 45.9594 35.9473 45.8634 36.3776C45.7595 36.8004 45.5754 37.199 45.3213 37.5515C44.9868 37.6732 44.7235 37.4752 44.4556 37.3395C43.449 36.8297 42.4254 36.3558 41.4668 35.7555C40.7358 35.1896 39.8825 34.7936 39.2197 34.131C39.1109 33.9525 39.0696 33.7405 39.1036 33.5339C39.1593 32.5345 38.7381 31.7254 38.0908 31.0113C37.7625 30.6496 37.349 30.3581 37.174 29.8732C37.2746 28.7818 36.8116 27.8776 36.2293 26.9936C33.4118 22.7197 30.6109 18.4375 27.8264 14.147Z" fill="#EE4495"/>
<path id="Vector_7" d="M30.0301 37.9741C28.7912 36.44 27.3835 35.0399 26.2886 33.3858C25.5825 32.3163 24.8871 31.2405 24.1856 30.1663C23.5414 28.7866 22.7918 27.4567 22.2653 26.0192C22.0795 25.5094 21.9231 25.0199 22.3613 24.5771C22.7996 24.1343 23.244 24.3027 23.7179 24.5101C24.5402 24.8702 25.4013 25.1462 26.1508 25.6622C26.7811 26.4277 27.159 27.346 27.6716 28.1832C31.1576 33.8722 35.7756 38.3483 41.6402 41.5054C41.8849 41.6379 42.1761 41.7221 42.2814 42.0292C41.4969 43.1118 40.5478 44.0631 39.469 44.848C39.1872 44.9353 38.9812 44.7622 38.7582 44.6422C37.6077 44.0269 36.4906 43.3504 35.4116 42.6154C34.6079 42.0604 33.8258 41.4757 33.0469 40.8848C32.24 40.1349 31.3558 39.4817 30.5691 38.7022C30.3538 38.4886 30.0874 38.3062 30.0301 37.9741Z" fill="#EE4495"/>
<path id="Vector_8" d="M2.31582 17.5332C2.49701 17.5597 2.55742 17.7063 2.61317 17.845C3.34257 19.7159 4.31666 21.4683 5.38367 23.1692C5.39606 24.153 5.18079 25.1165 5.16376 26.1002C5.11455 28.7133 5.58201 31.3101 6.53895 33.7396C6.63446 33.9516 6.70365 34.1747 6.74493 34.4038C6.76196 34.7062 6.56062 34.8793 6.34382 35.0274C5.55092 35.5497 5.07703 36.2933 4.81067 37.1945C4.72755 37.4954 4.58597 37.7768 4.39409 38.0223C4.21755 38.2422 4.03016 38.4901 3.68791 38.2905C2.25852 35.8942 1.38975 33.2922 0.929806 30.5482C0.180268 26.0815 0.705247 21.7473 2.31582 17.5332Z" fill="#5C4A83"/>
<path id="Vector_9" d="M45.8556 36.3778C45.1846 34.0988 44.3317 31.8782 43.305 29.7378C43.2818 28.0945 43.5327 26.4637 43.3701 24.8127C43.3871 24.6459 43.4599 24.5102 43.6395 24.5009C44.1444 24.4666 44.3565 24.0644 44.6198 23.7214C44.6699 23.6618 44.7254 23.607 44.7855 23.5577C45.7147 22.7937 45.7147 22.7937 44.7855 22.0142C44.6676 21.9166 44.5634 21.8033 44.4758 21.6774C44.166 21.1458 43.7959 20.954 43.2802 21.4373C43.2306 21.4786 43.1688 21.5023 43.1045 21.5048C43.0402 21.5074 42.9768 21.4886 42.9241 21.4514C42.4143 20.5836 42.0756 19.6249 41.9267 18.6279C42.5338 17.9154 43.1842 17.2341 43.497 16.3205C44.0198 15.8889 44.6796 15.6614 45.3554 15.6797C47.4646 19.7333 48.2591 24.0379 47.8983 28.5731C47.6861 31.2937 47.0635 33.9207 45.8556 36.3778Z" fill="#5C4A83"/>
<path id="Vector_10" d="M42.2814 42.0278C38.1883 40.0603 34.7163 37.2556 31.6686 33.9207C29.6042 31.6486 27.8454 29.1132 26.4373 26.3796C26.3297 26.1467 26.2341 25.9083 26.1508 25.6655C28.2601 26.5807 30.137 27.8763 31.969 29.2514C33.2467 30.2071 34.3833 31.3265 35.5928 32.3695C36.0435 32.4958 36.3099 32.8684 36.5762 33.1958C37.1957 33.9535 37.9142 34.6145 38.4934 35.4018C39.0463 36.1206 39.6038 36.8346 40.1071 37.5845C40.854 38.6568 41.5341 39.7747 42.1435 40.9318C42.2984 41.2202 42.5137 41.4993 42.4316 41.8673L42.2814 42.0278Z" fill="#F176A5"/>
<path id="Vector_11" d="M45.36 15.6795C44.7855 16.0178 44.1335 16.1301 43.5017 16.3203C44.7716 13.4251 43.8981 10.2166 41.2453 8.27397C40.6026 7.80625 40.2139 7.19978 40.1288 6.48729C39.9544 4.96057 39.2824 3.53507 38.2178 2.43374C40.4958 1.21456 43.0185 2.15779 43.8641 4.60239C44.136 5.44009 44.7035 6.14839 45.4592 6.5933C48.7345 8.62008 48.8522 13.1694 45.7193 15.4035C45.6001 15.4908 45.4824 15.5875 45.36 15.6795Z" fill="#6D628D"/>
<path id="Vector_12" d="M28.9724 2.39505C27.9664 3.6406 27.3079 5.13332 27.0645 6.71987C27.0167 7.04076 26.8988 7.34699 26.7194 7.61656C26.54 7.88613 26.3035 8.11234 26.0269 8.27893C25.2743 8.74665 24.7756 9.47784 24.1469 10.075C23.0009 9.08028 21.7961 8.16356 20.5603 7.28581C20.5963 7.2174 20.6498 7.15984 20.7151 7.11899C22.0346 6.35817 23.117 5.40403 23.5569 3.84497C23.6373 3.59752 23.7727 3.37178 23.9528 3.18485C24.1328 2.99792 24.3528 2.85472 24.596 2.7661C25.9851 1.80417 27.4346 1.57498 28.9724 2.39505Z" fill="#6D628D"/>
<path id="Vector_13" d="M3.6879 38.2857C4.22528 38.2311 4.40648 37.7852 4.51334 37.3861C4.66506 36.7926 4.93166 36.235 5.29786 35.7454C5.66406 35.2558 6.12266 34.8438 6.64736 34.533C7.62299 33.6989 9.62847 33.7878 10.3641 34.6889C9.34662 35.8551 8.6234 37.1382 8.4546 38.7331C8.40689 39.1211 8.27315 39.4934 8.06326 39.8224C7.85337 40.1513 7.57271 40.4286 7.24203 40.6336C6.79757 40.9298 6.429 41.3383 6.0248 41.6969C5.10776 40.6622 4.32271 39.5163 3.6879 38.2857Z" fill="#6D628D"/>
<path id="Vector_14" d="M24.5975 2.76724C23.944 3.40957 23.5305 4.19222 23.2193 5.05282C22.7655 6.30007 21.618 6.7444 20.5603 7.28071C18.9512 6.32501 17.3252 5.38958 15.5706 4.71139C15.4606 4.66929 15.3259 4.62096 15.3104 4.46194C18.0546 3.40489 20.8731 2.72359 23.8279 2.74697C24.0865 2.73918 24.342 2.75789 24.5975 2.76724Z" fill="#5C4A83"/>
<path id="Vector_15" d="M28.4738 46.2168C30.2864 47.001 32.1385 47.6895 34.0225 48.2794C31.7832 49.4175 29.3766 49.9944 26.9081 50.2766C25.8922 50.392 24.8686 50.5042 23.8387 50.4169L24.9119 48.5632C25.0323 48.4272 25.1846 48.3238 25.3548 48.2623C26.3303 47.9939 27.2025 47.4353 27.8574 46.6596C28.0262 46.4694 28.1997 46.2667 28.4738 46.2168Z" fill="#5C4A83"/>
<path id="Vector_16" d="M42.4316 41.8547C41.6817 40.415 40.8577 39.0156 39.9631 37.6623C40.31 37.0621 40.7498 36.5227 41.0719 35.9053C41.1602 35.7385 41.2546 35.5108 41.5365 35.6153C42.7986 36.2608 44.005 37.0185 45.3198 37.5579C44.5612 39.119 43.589 40.5653 42.4316 41.8547Z" fill="#5C4A83"/>
<path id="Vector_17" d="M35.4612 42.4814L39.469 44.8465C38.2007 45.9809 36.7878 46.9398 35.2676 47.6981L33.1444 43.7427C33.9265 43.3374 34.5413 42.6249 35.4612 42.4814Z" fill="#5C4A83"/>
<path id="Vector_18" d="M8.6358 11.9254C10.3316 9.82228 12.5662 8.8276 15.2066 9.06458C18.3596 9.34833 20.6377 11.0337 21.8131 14.0271C23.052 17.1888 22.0129 20.9649 19.4902 22.8326C17.9895 23.001 17.3128 22.2558 17.5327 20.6811C17.7201 20.1012 18.307 19.8236 18.5718 19.2982C18.7019 19.0515 18.8177 18.7975 18.9187 18.5374C19.6264 16.6665 19.2749 14.9719 17.926 13.5687C16.4905 12.0767 14.7188 11.807 12.7939 12.5319C12.0056 12.7658 11.5163 13.4674 10.8225 13.84C9.36056 14.2469 8.31988 13.3317 8.6358 11.9254Z" fill="#827AA0"/>
<path id="Vector_19" d="M17.638 20.6687C17.638 21.4139 17.624 22.1435 18.3937 22.5957C18.7468 22.803 19.168 22.5427 19.4778 22.8358C18.4711 23.7837 17.2013 24.1734 15.9159 24.5507C13.452 24.7815 11.205 24.281 9.34661 22.524C8.14718 21.4095 7.33022 19.9404 7.01349 18.3285C6.69676 16.7165 6.89662 15.0449 7.58426 13.5547C7.63537 13.4378 7.6679 13.313 7.70816 13.1914C8.04576 12.7923 8.21766 12.2732 8.62186 11.9224C8.74575 12.6426 8.79066 13.3785 9.64705 13.7059C10.0822 13.8727 10.4446 13.72 10.8379 13.656C10.9355 13.9678 10.728 14.1955 10.5933 14.4356C8.8557 17.5849 10.9928 21.4264 14.5516 21.4934C15.3525 21.4932 16.141 21.2934 16.8466 20.9119C17.1022 20.7918 17.3221 20.5705 17.638 20.6687Z" fill="#6D628D"/>
<path id="Vector_20" d="M38.385 35.4797L35.5975 32.3507C36.3083 31.6429 37.0129 30.9304 37.1709 29.8687C38.5027 30.9319 39.4938 32.1714 39.3142 34.0282C39.1888 34.6362 39.0711 35.2443 38.385 35.4797Z" fill="#E42383"/>
<path id="Vector_21" d="M10.3656 34.7001C9.1546 33.9908 7.90795 34.1139 6.64891 34.5442C5.8312 32.7045 5.29998 30.7488 5.07395 28.7461C4.87108 27.1091 4.98414 25.5002 5.10028 23.8772C5.10282 23.6162 5.20482 23.3662 5.38523 23.1787C7.18725 25.8011 9.38126 28.1272 11.8895 30.0744C12.2813 31.1221 12.9735 32.0061 13.4675 33.0008C12.3132 33.3088 11.2494 33.8916 10.3656 34.7001Z" fill="#4A3379"/>
<path id="Vector_22" d="M30.0301 37.9741L33.1274 40.7711C32.9199 41.482 32.2818 41.5381 31.7197 41.7065C29.8846 41.9092 28.7247 40.8521 27.7072 39.5238C28.6674 39.3009 29.3534 38.6445 30.0301 37.9741Z" fill="#E42383"/>
<path id="Vector_23" d="M43.4877 24.6115C43.7742 25.8244 43.7092 27.0561 43.5512 28.2675C43.4877 28.7508 43.7061 29.3058 43.305 29.7377C41.4314 26.2463 39.0781 23.0384 36.3145 20.2087C38.3958 20.4254 40.2976 19.9967 41.9376 18.6294C42.4626 19.5227 42.6329 20.5564 43.0541 21.4918C43.1997 21.8567 42.8915 21.9845 42.6979 22.1653C42.0676 22.7578 42.0909 22.778 42.6871 23.4344C43.003 23.7868 43.5745 23.977 43.4877 24.6115Z" fill="#4A3379"/>
<path id="Vector_24" d="M34.7179 11.1925C34.4608 11.5449 34.2068 11.9003 33.9435 12.248C33.5161 12.8077 33.0283 12.8389 32.6303 12.2667C32.1151 11.5253 31.4733 10.8819 30.7348 10.3662C30.1835 9.97647 30.1866 9.50408 30.7456 9.10652C31.4785 8.58334 32.1187 7.93984 32.6396 7.20291C33.0299 6.65568 33.4821 6.67127 33.9048 7.18732C34.2146 7.56461 34.501 7.96685 34.7968 8.34726C34.6853 8.62945 34.4314 8.77288 34.2084 8.94126C33.304 9.62569 33.2962 9.78471 34.1387 10.4894C34.3741 10.6905 34.628 10.8714 34.7179 11.1925Z" fill="#FEC242"/>
<path id="Vector_25" d="M34.7179 11.1924C34.3384 10.8978 33.9435 10.6125 33.5827 10.3053C33.163 9.95456 33.1537 9.52582 33.5533 9.1953C33.9528 8.86478 34.3075 8.51711 34.7922 8.34717C35.1205 8.59194 35.4596 8.81488 35.7771 9.08148C36.3233 9.52529 36.3186 9.9691 35.7632 10.4129C35.4271 10.6904 35.0694 10.9321 34.7179 11.1924Z" fill="#FCEF5A"/>
<path id="Vector_26" d="M16.2427 43.568C15.981 43.9203 15.7285 44.2789 15.4529 44.6203C15.0409 45.1333 14.533 45.1613 14.1768 44.639C13.6698 43.8872 13.0261 43.2387 12.2797 42.7276C11.7486 42.3628 11.7532 41.8218 12.2797 41.4508C13.0264 40.936 13.6713 40.2857 14.1814 39.5331C14.5206 39.0342 15.0193 39.0389 15.4095 39.5019C15.7084 39.8558 15.967 40.2441 16.2427 40.6182C16.1699 40.9799 15.8726 41.153 15.6232 41.3635C14.9 41.9653 14.9078 42.196 15.6108 42.7884C15.854 43.0051 16.2845 43.1034 16.2427 43.568Z" fill="#FEC242"/>
<path id="Vector_27" d="M28.4738 46.2167C27.5771 47.4452 26.4389 48.3043 24.9119 48.5553C25.3595 47.2145 25.5577 45.8519 25.2371 44.4487L28.4738 46.2167Z" fill="#6D628D"/>
<path id="Vector_28" d="M16.2427 43.5678C15.933 43.3106 15.6232 43.044 15.3042 42.7992C14.6847 42.3237 14.6693 41.8638 15.281 41.3727C15.5907 41.117 15.9221 40.8706 16.2427 40.6196C16.6113 40.8956 16.9891 41.1591 17.3438 41.4506C17.8471 41.8653 17.8455 42.3221 17.3438 42.7353C16.986 43.0253 16.6097 43.2919 16.2427 43.5678Z" fill="#FCEF59"/>
<path id="Vector_29" d="M31.7135 41.7157C32.127 41.3181 32.7712 41.2714 33.1212 40.7803C33.9528 41.2792 34.7008 41.895 35.4612 42.4952C34.6869 42.9146 34.0829 43.6427 33.1382 43.7534L31.7135 41.7157Z" fill="#4B3379"/>
<path id="Vector_30" d="M38.385 35.4798C38.8496 35.0978 38.9611 34.4851 39.3142 34.0283L41.5349 35.6045L40.502 37.1761C40.3673 37.3834 40.2821 37.6438 39.9677 37.6516L38.385 35.4798Z" fill="#4B3379"/>
<path id="Vector_31" d="M43.4878 24.6112C43.1736 24.0819 42.7513 23.626 42.2488 23.2735C41.7997 22.9617 41.8214 22.6171 42.2488 22.2866C42.5508 22.0543 42.8931 21.8626 43.0588 21.4915C43.8982 20.6075 43.8501 20.4438 44.8939 21.8968C44.8847 21.9204 44.8738 21.9434 44.8614 21.9654C44.6771 22.2773 44.2063 22.3318 44.1366 22.7029C44.0561 23.1316 44.578 23.2049 44.7267 23.5167C44.7521 23.56 44.7681 23.6082 44.7737 23.6582C44.7793 23.7082 44.7744 23.7588 44.7592 23.8067C44.3922 24.1684 44.3194 24.9931 43.4878 24.6112Z" fill="#FCC143"/>
<path id="Vector_32" d="M44.7545 23.8068C44.703 23.7198 44.6428 23.6383 44.5749 23.5636C43.5807 22.6578 43.6132 22.4723 44.8846 21.897C46.1142 22.7529 46.1142 22.7529 44.7545 23.8068Z" fill="#FBEC59"/>
<path id="Vector_33" d="M12.6855 12.4057C14.3255 11.5373 16.5292 11.8974 17.9508 13.2647C19.4329 14.6928 19.8804 16.8942 19.0442 18.6451C18.7236 18.9849 18.3132 19.1128 17.8656 19.1549C14.5593 19.4916 11.778 16.4733 12.3618 13.1821C12.3913 12.8968 12.5039 12.6267 12.6855 12.4057Z" fill="#74D0F2"/>
<path id="Vector_34" d="M12.6855 12.4053C12.5507 13.5808 12.3757 14.7283 12.8512 15.9116C13.7323 18.1286 16.6128 19.6284 18.815 18.682C18.8891 18.6606 18.9655 18.6481 19.0426 18.6446C18.863 19.5193 18.1816 20.0478 17.638 20.6589C14.6848 22.7948 11.1957 21.3589 10.1209 18.6321C9.41011 16.8252 9.79726 15.1929 10.8519 13.6541C11.4342 13.1988 11.9034 12.5721 12.6855 12.4053Z" fill="#77B9E6"/>
</g>
<defs>
<clipPath id="clip0_8_278">
<rect width="47.4067" height="49.8758" fill="white" transform="translate(0.59375 0.572266)"/>
</clipPath>
</defs>
</svg>
