<svg width="32" height="39" viewBox="0 0 32 39" fill="none" xmlns="http://www.w3.org/2000/svg">
<g id="Group 954">
<path id="Vector" d="M7.0121 11.029C6.71734 10.3892 6.09729 7.96644 5.46201 7.64185C4.91314 7.35959 3.6121 7.71711 2.92092 7.57598C0.933787 7.17141 0.379845 5.4026 0.999871 3.85488C2.3314 0.505415 7.97771 -0.33666 9.51253 3.35152C9.80186 3.97445 9.81283 4.6781 9.54302 5.3085C9.15169 6.13646 7.25604 6.67747 7.068 7.32666C6.95619 7.69831 7.9777 9.44831 8.23181 9.7682C8.77052 10.455 8.32838 10.2057 9.16186 10.2386C9.72894 10.1574 10.2857 10.0235 10.8237 9.83875C12.7658 9.42861 14.7796 9.40352 16.7329 9.76513C18.6862 10.1267 20.5347 10.8669 22.157 11.9369C25.8365 14.3784 28.2556 17.8643 29.6481 21.6607C30.4257 23.7729 31.2389 25.8616 31.3608 28.0962C31.4828 30.3307 29.8362 31.1634 27.5899 32.0149C22.6856 33.8966 17.5678 35.2797 12.6838 37.1896C11.0423 37.8294 8.50117 38.6009 6.68684 38.1305C4.58281 37.5801 3.55112 35.1432 2.73797 33.572C0.659356 29.5451 -0.275754 24.9067 0.557724 20.5175C0.909002 18.5912 1.68582 16.7528 2.83962 15.117C3.39419 14.3421 4.03092 13.6203 4.74035 12.9624C5.45186 12.3038 6.46831 11.7816 7.0121 11.029ZM2.89552 29.7897C6.24976 30.6977 9.82762 30.0626 13.126 29.2534C16.4243 28.4443 19.8548 27.4188 22.7008 25.7864C24.002 25.0397 25.1971 24.1451 26.2583 23.1237C26.6913 22.7581 27.0814 22.3513 27.4221 21.91C27.8795 21.1714 27.5136 20.7575 27.107 19.9624C25.8137 17.4245 23.8997 15.2003 21.5166 13.4658C16.9783 10.2292 10.2901 10.1728 6.09729 13.8751C1.45725 17.9866 1.05577 24.5115 2.89552 29.7897ZM28.3674 23.2837C22.2231 29.0935 12.4043 32.3112 3.39359 31.4456C4.04919 33.2803 5.50268 37.0579 8.2369 36.7098C11.5759 36.2817 14.8438 34.6211 17.9744 33.5767C21.2219 32.49 24.7235 31.6056 27.8338 30.2413C29.2771 29.6063 29.7904 29.0417 29.6786 27.6022C29.5068 26.1047 29.0635 24.6448 28.3674 23.2837ZM5.17741 6.05179C6.39205 6.05179 8.16574 5.619 8.06917 4.26886C7.9777 2.994 6.36156 2.11429 5.01987 2.38714C3.67817 2.65999 2.43812 3.72787 2.41779 4.94158C2.40762 6.43284 3.93736 6.22585 5.17741 6.05179Z" fill="white"/>
<path id="Vector_2" d="M3.27086 23.3592C2.47804 18.5043 10.4977 17.9351 11.4024 22.6159C11.5801 23.6484 11.3096 24.7041 10.6498 25.5527C9.99004 26.4014 8.99454 26.9741 7.88041 27.1461C5.19701 27.4707 3.65711 25.3397 3.27086 23.3592ZM4.41944 22.8276C4.516 24.1071 5.55787 25.6502 7.17401 25.716C8.95277 25.7819 10.0251 24.1072 9.7151 22.7335C9.05441 20.0379 4.18058 19.7463 4.41944 22.8276Z" fill="white"/>
</g>
</svg>
