<svg width="44" height="39" viewBox="0 0 44 39" fill="none" xmlns="http://www.w3.org/2000/svg">
<g id="Group 950">
<path id="Vector" d="M12.9204 32.8079C10.4912 32.9091 7.85561 33.4038 5.63294 32.2458C3.84751 31.3014 3.10664 29.615 3.03376 27.8611C2.94874 25.7812 3.74427 23.7463 4.68557 21.8631C4.90419 21.4191 5.83942 20.1767 5.29286 19.5022C4.57018 18.5747 3.21594 17.8607 2.41432 16.8939C-0.330628 13.5773 -1.66667 8.86658 3.5803 6.91597C4.74861 6.50433 5.97668 6.25614 7.22403 6.17957C8.28678 6.09525 9.59248 6.34823 10.6249 6.129C12.1795 5.80296 13.7706 2.71122 15.2038 1.66565C17.2079 0.209719 19.8253 -0.481734 22.3273 0.372711C24.8293 1.22716 25.7828 3.18339 28.6431 2.66623C32.8941 1.93546 37.6674 1.80616 38.2868 6.60117C38.6087 9.12516 37.6249 11.5648 36.465 13.8246C36.1938 14.2151 35.9736 14.634 35.8091 15.0726C35.8455 15.3255 37.3091 16.3149 37.5703 16.5453C38.6502 17.4625 39.674 18.4346 40.6371 19.4572C43.7646 22.9649 44.5966 27.8105 38.9731 29.6206C37.6201 30.0231 36.2099 30.2372 34.7889 30.2558C34.0844 30.2558 33.3739 30.2558 32.6634 30.2558C31.6006 30.2558 31.5338 30.1434 30.9751 30.7561C29.1532 32.7236 28.7099 35.1633 26.2868 36.8215C25.3061 37.5174 24.1541 37.9772 22.9342 38.1597C21.7143 38.3421 20.4645 38.2416 19.2969 37.8671C16.4973 36.9621 14.8273 34.7135 12.9204 32.8079ZM18.1917 9.04085C15.969 10.9409 13.6431 12.7566 11.6269 14.8365C10.5277 15.9607 10.552 16.7815 10.637 18.243C10.6916 19.193 10.467 20.8626 11.0439 21.6889C11.7241 22.6614 13.8981 23.2291 15.0095 23.7238C16.5581 24.4096 18.0824 25.1516 19.6431 25.8037C21.3739 26.5289 21.9629 26.4502 23.384 25.3371C25.5594 23.6601 27.6373 21.8776 29.6087 19.9969C30.5743 19.0637 30.9933 18.5241 30.8233 17.2593C30.5318 14.7971 30.216 13.656 27.6471 12.4699C24.61 11.0724 21.446 9.92503 18.1917 9.04085ZM34.9103 16.6746C32.3293 19.0918 32.9123 22.088 32.4447 25.1348C32.3294 25.8993 31.8374 27.181 32.0135 27.9455C31.6856 28.5469 31.9225 28.783 32.7301 28.6481L33.5318 28.7043C35.3121 28.7989 37.094 28.5441 38.7605 27.9567C45.3496 25.4383 37.9225 18.8726 34.9103 16.6746ZM15.0459 32.212C16.4062 34.2526 18.6896 36.355 21.5378 36.4899C24.2888 36.6135 26.4751 34.7304 27.8111 32.8135C28.1755 32.2907 29.4265 30.565 29.0257 29.9241C28.6249 29.2833 24.6957 28.8449 23.9427 28.7043C20.9366 28.1422 17.5662 30.8854 15.0459 32.212ZM6.54387 18.7208C7.82525 17.085 8.81515 15.837 9.14916 13.8358C9.48317 11.8346 9.98114 9.80535 10.4305 7.79852C7.52162 7.45562 2.45074 7.83226 1.52766 10.8678C0.604582 13.9033 4.28477 16.9332 6.51959 18.7321L6.54387 18.7208ZM34.3941 13.9764C35.6087 11.4636 37.6674 8.18641 36.301 5.3926C34.8921 2.50885 30.2706 3.1047 27.6654 4.14465C29.1412 6.02692 30.2849 8.11403 31.054 10.3281C31.6249 12.1607 32.3779 13.1051 34.3698 13.9876L34.3941 13.9764ZM6.90826 21.048C5.79693 23.4877 4.12079 26.349 5.18355 29.0304C6.14914 31.4869 9.43457 31.5487 11.8637 30.9023C11.1471 28.9348 10.3516 26.9673 9.82324 24.938C9.32527 23.1392 8.93658 21.9137 6.88395 21.0593L6.90826 21.048ZM24.7322 3.68369C20.6633 0.0579236 15.0156 1.53073 13.3637 6.29763C15.131 6.66302 17.4386 7.60741 19.1269 6.85977C21.052 6.01094 22.8739 4.7349 24.7079 3.69495L24.7322 3.68369ZM20.0986 27.6531L11.3354 23.8081C11.8163 26.1567 12.6956 28.4201 13.9406 30.5144L20.0986 27.6531ZM29.4144 11.1826C28.7706 9.33879 27.884 6.73048 26.2929 5.3139C25.6856 4.75176 26.0378 4.85858 25.2119 5.07781C24.6588 5.28141 24.128 5.53364 23.6269 5.83105C22.5052 6.39782 21.4277 7.03647 20.4022 7.74232L29.4144 11.1826ZM30.9387 21.4809L24.0824 27.3215L27.3739 27.9567L28.7888 28.2265C29.803 28.4233 29.6148 28.6144 30.0702 27.7375C30.9629 25.9836 30.9812 23.3809 30.9144 21.4921L30.9387 21.4809ZM10.8192 13.1838L15.969 8.51807L13.8496 8.16955C12.4407 7.93908 12.2706 7.64113 11.9366 8.92279L10.8192 13.1838ZM8.74833 18.6309C7.63092 19.7551 7.63701 19.7551 8.95482 20.1374C8.88195 19.6371 8.8212 19.1761 8.74833 18.6309Z" fill="white"/>
<path id="Vector_2" d="M16.6552 17.473C16.6066 15.4549 18.1187 12.886 20.7726 12.9759C21.8601 13.0586 22.8837 13.4855 23.6712 14.1847C24.4587 14.884 24.962 15.8129 25.0965 16.8153C25.6916 22.1443 17.4264 22.6053 16.6552 17.473ZM21.8536 15.1177C21.4111 14.8534 20.8808 14.7449 20.3592 14.812C19.8376 14.879 19.3594 15.1171 19.0115 15.483C18.5541 15.9601 18.3146 16.5828 18.3434 17.22C18.368 17.8527 18.6469 18.4541 19.1254 18.9064C19.604 19.3587 20.2477 19.6293 20.9305 19.6653C21.2603 19.6639 21.5864 19.6015 21.8897 19.4817C22.193 19.3618 22.4674 19.187 22.6966 18.9675C22.9258 18.748 23.1052 18.4883 23.2243 18.2036C23.3434 17.919 23.3997 17.6151 23.39 17.31C23.4082 16.2532 22.7098 15.6404 21.8536 15.1177Z" fill="white"/>
</g>
</svg>
