<svg width="39" height="54" viewBox="0 0 39 54" fill="none" xmlns="http://www.w3.org/2000/svg">
<g id="Group 949">
<path id="Vector" d="M30.7169 30.6462C30.9029 31.9476 31.2639 33.3604 31.1709 34.6972C31.1272 35.4719 30.7661 35.7859 30.4762 36.4442C30.148 37.1936 30.0714 36.7885 30.4762 37.619C30.8482 38.3684 31.5101 39.0419 31.9313 39.7862C32.7896 41.3391 33.3873 43.0039 33.7038 44.7234C34.2508 47.5388 34.6885 52.1216 31.357 53.7268C29.4477 54.6484 28.8788 52.714 28.1622 51.4227C27.2542 49.6452 26.1545 47.9572 24.8799 46.3843C24.5133 47.468 24.3328 49.301 22.7245 48.6377C20.7442 47.8224 19.2781 45.3412 18.7748 43.5031C18.7037 43.2296 18.6544 41.7662 18.4849 41.6244C18.1337 41.5651 17.7795 41.5229 17.4236 41.4978C16.6809 41.1846 16.0452 40.689 15.5855 40.0647C15.3174 39.766 14.9619 39.1533 14.5789 38.9659C13.8951 38.6368 14.6719 38.5912 13.7802 39.0419C12.8886 39.4926 12.0953 40.8294 11.3349 41.5282C7.80645 44.774 4.22328 37.7405 2.99788 35.32C1.01352 31.3172 -0.00925677 26.9635 6.31258e-05 22.5594C0.00682429 20.5652 0.206396 18.5757 0.596362 16.6145C0.758764 15.6413 0.996423 14.6801 1.30752 13.7383C1.65763 12.756 2.36332 11.9407 2.70797 10.9735C3.39178 9.04928 3.33705 6.62881 3.61058 4.62357C3.77469 3.41333 4.01542 0.521932 5.65657 0.0661948C7.29772 -0.389543 9.62813 1.63089 10.8316 2.37019C12.9104 3.65132 14.5899 4.64382 16.975 5.34768C21.3514 6.64907 24.6337 9.2012 27.73 12.2546C31.4445 15.9157 34.8417 19.9819 36.8384 24.7317C37.4675 26.2509 39.3603 30.4335 37.8778 31.902C36.6852 33.097 32.1557 30.9601 30.7169 30.6462ZM4.60621 12.5838C5.04477 17.6422 6.36569 22.6013 8.51763 27.2687C9.58529 29.5 10.8784 31.6328 12.3798 33.6388C12.7682 34.1452 13.1676 34.6516 13.5833 35.158C13.8623 35.4972 14.1304 35.8264 14.4367 36.1707L15.1205 35.8568C16.4936 35.634 18.3044 34.363 19.4969 33.7604C20.8263 33.097 22.1446 32.4084 23.4411 31.6893C24.7376 30.9703 26.6086 30.2107 27.5932 29.2233C28.195 28.6207 28.3044 28.6713 28.0801 27.7041C27.9353 27.1584 27.7318 26.6275 27.4729 26.1192C26.893 24.9039 26.1873 23.7342 25.5309 22.5746C22.719 17.5108 19.765 12.5332 15.3776 8.50242C13.6052 12.285 8.75285 13.9004 4.60621 12.5838ZM30.2847 28.8232L36.5156 30.4588C35.4708 25.2381 33.1075 20.8681 29.5626 16.6956C26.0943 12.6192 22.2595 9.13031 17.0461 7.12506C22.8877 13.5268 27.3784 20.8871 30.2847 28.8232ZM2.99788 14.8169C1.33757 19.9573 1.33757 25.4349 2.99788 30.5753C3.88453 33.4823 5.31182 36.224 7.21565 38.6773C7.52832 39.1182 7.88157 39.5333 8.27145 39.9179C8.5119 40.1602 8.79262 40.3653 9.10298 40.5256C9.55156 40.8902 9.87979 40.8041 10.0931 40.2673C11.2912 39.5331 12.3962 37.9836 13.452 37.0417C6.9312 31.2235 4.42568 22.8531 2.99788 14.8169ZM28.7092 37.8418C26.2327 39.1439 23.6257 40.2208 20.9247 41.0573C19.9564 41.3408 19.8744 41.3003 20.0385 42.2624C20.134 42.8464 20.3048 43.4176 20.5472 43.9638C21.025 45.0871 21.8511 46.0543 22.9215 46.7438C23.2825 46.0197 23.66 44.4348 24.6829 44.3841C25.5309 44.3436 26.5046 45.7513 26.9532 46.2729C28.5287 48.106 29.393 50.2378 30.5309 52.2988C34.7541 49.2504 31.3241 40.88 28.7092 37.8468V37.8418ZM4.63903 10.9634C7.54934 12.2243 12.0352 11.0444 13.4466 8.26441C14.2945 6.5883 12.2212 5.43378 10.8864 4.47673C9.42416 3.32564 7.74352 2.43619 5.9301 1.85371C4.92352 4.80588 4.68829 7.89983 4.62264 10.9685L4.63903 10.9634ZM15.673 37.7253C16.8109 39.0723 17.5494 39.9078 19.5024 39.5483C21.3786 39.1898 23.1945 38.6005 24.9018 37.7962C26.1983 37.1885 28.3537 36.3075 29.2071 35.1732C30.0604 34.0389 29.5353 31.8868 28.8898 30.788L15.673 37.7253Z" fill="white"/>
</g>
</svg>
