<svg width="31" height="44" viewBox="0 0 31 44" fill="none" xmlns="http://www.w3.org/2000/svg">
<g id="Group 945">
<path id="Vector" d="M21.9546 9.61485C17.0046 5.16922 8.98723 5.12182 3.72345 9.18808C-2.87869 14.2857 0.521651 22.9932 4.53672 28.4169C6.93168 31.6355 10.4921 34.2317 12.4516 37.5867C13.2264 38.9026 14.6544 39.9577 15.7302 41.078C16.9268 42.3859 18.5339 43.3162 20.3281 43.7394C22.0098 44.0979 23.7697 43.9721 25.372 43.3788C26.9743 42.7856 28.3425 41.7532 29.2932 40.4201C31.5728 37.1184 29.7222 33.6864 29.3316 30.1951C29.1395 28.4584 29.6837 26.6386 29.6197 24.8604C29.5007 21.9732 28.7643 19.1364 27.4529 16.5145C26.1416 13.8925 24.2815 11.5373 21.9802 9.58521L21.9546 9.61485ZM17.6898 33.0996C16.4474 33.5086 14.7121 34.4155 13.3545 34.3266C11.6448 34.2139 10.5049 32.4238 9.56996 31.3628C7.05967 28.6938 4.98628 25.6981 3.41609 22.4716C0.905869 16.8938 2.43633 10.4566 9.53154 8.50641C17.2863 6.37251 23.4082 12.4956 25.8096 18.2631C27.1621 21.3927 27.7419 24.7627 27.5065 28.1264C27.3977 29.223 27.0711 29.2527 25.9312 29.6379C24.9899 29.958 24.2279 30.4619 23.6067 29.9995C22.9856 29.5372 22.6782 28.1383 22.326 27.4981L20.9236 24.6944C20.2832 23.4081 20.2833 23.2244 21.2054 22.11C21.7497 21.4224 22.4861 20.6578 22.7422 19.822C22.8125 19.4752 22.8081 19.1188 22.7292 18.7736C22.6504 18.4283 22.4986 18.1008 22.2826 17.81C22.0666 17.5192 21.7906 17.2707 21.4706 17.0789C21.1506 16.8871 20.7928 16.7557 20.4177 16.6923C20.0117 16.6247 19.5949 16.6372 19.1945 16.7289C18.7941 16.8206 18.4192 16.9894 18.094 17.2243C17.7689 17.4593 17.501 17.755 17.3077 18.0924C17.1145 18.4297 17.0003 18.8009 16.9725 19.1818C16.9481 20.0104 17.0692 20.8372 17.3312 21.6299C17.376 21.8077 17.6642 22.436 17.5873 22.5961C17.5105 22.7561 15.7174 23.5504 15.4549 23.6808C14.2766 21.8611 12.759 18.8025 10.332 18.0319C7.45677 17.1309 6.40657 19.8872 7.00851 21.7781C7.80897 24.3091 9.88376 25.6428 12.8358 25.8088C14.1486 25.8858 13.9885 25.5895 14.6865 26.5556C15.0837 27.2435 15.4116 27.9638 15.6662 28.7073L17.6898 33.0996ZM27.4745 30.9301C27.8907 31.9437 28.4543 33.07 27.6282 34.0184C26.8021 34.9668 24.4264 35.6721 23.1457 36.1641C21.2574 36.8844 19.2998 37.4381 17.2991 37.8179C15.3781 38.1795 14.52 37.9838 14.0269 36.2174C18.804 35.1446 23.0624 32.8506 27.4745 30.9301ZM16.9405 39.7324C21.1413 39.2938 24.9066 37.5274 28.5759 35.8025C29.0242 38.2802 27.0006 40.7342 24.5096 41.73C22.0186 42.7258 18.1124 42.0323 16.9149 39.7324H16.9405ZM18.6375 24.2676L21.231 29.1104L21.9674 30.4796C22.5629 31.0013 22.4797 31.3332 21.7112 31.4695C21.4039 31.7481 20.0015 32.3824 19.5404 32.2579C18.5222 31.9734 17.7346 28.8555 17.2927 27.8063C17.1262 27.4151 16.1017 25.7436 16.2746 25.4353C16.4475 25.1271 18.1828 24.4751 18.6119 24.2676H18.6375ZM13.3097 23.9001C12.6215 23.9945 11.919 23.9362 11.2599 23.7301C10.6009 23.524 10.0041 23.176 9.51876 22.7146C8.95524 22.1219 8.19321 20.5689 8.91682 19.8516C10.4729 18.2927 12.8422 23.0169 13.2841 23.9001H13.3097ZM19.5596 21.132C18.6503 20.9126 18.471 18.5239 19.8158 18.3046C21.9802 17.943 19.9246 20.6933 19.534 21.132H19.5596Z" fill="white"/>
<path id="Vector_2" d="M27.4034 3.94799C26.763 3.13 22.4534 7.01251 24.3681 7.8068C24.9572 8.04983 26.2891 6.65093 26.6669 6.31306C27.4034 5.5899 28.1142 4.76599 27.4034 3.94799Z" fill="white"/>
<path id="Vector_3" d="M3.72328 0.996012C2.66668 1.1442 3.85135 6.07588 5.48427 6.25963C7.85361 6.5323 4.77988 0.847825 3.72328 0.996012Z" fill="white"/>
<path id="Vector_4" d="M16.4914 4.66525C17.5352 4.79566 19.0528 0.296666 17.2662 0.012146C15.4796 -0.272374 15.4476 4.53485 16.4914 4.66525Z" fill="white"/>
</g>
</svg>
