<svg width="34" height="45" viewBox="0 0 34 45" fill="none" xmlns="http://www.w3.org/2000/svg">
<g id="Group 948">
<path id="Vector" d="M9.20793 17.26C8.24422 14.9105 7.30588 12.608 6.35739 10.2726C5.72337 10.3478 5.09952 10.4512 4.47057 10.4888C1.38672 10.6579 -0.469678 8.70788 0.103473 5.8979C0.223391 5.22228 0.499401 4.57862 0.912587 4.01092C1.32577 3.44323 1.86638 2.96489 2.49751 2.60862C4.8104 1.28821 7.28558 0.25913 10.0245 0.0335798C11.1107 -0.0598953 12.2062 0.0422333 13.2505 0.334321C13.7159 0.458922 14.146 0.677025 14.5101 0.973115C14.8742 1.26921 15.1634 1.636 15.3571 2.0474C15.5508 2.45881 15.6443 2.90472 15.6308 3.35339C15.6174 3.80206 15.4974 4.24247 15.2793 4.64328C14.797 5.46515 14.2458 6.25072 13.6309 6.99276C14.7873 9.59599 15.9826 12.2963 17.2168 15.0938C22.3549 15.2253 26.7322 17.0344 30.0392 20.8265C32.4127 23.5075 33.6961 26.8747 33.6658 30.3419C33.6935 33.702 32.4562 36.9661 30.1669 39.5724C27.8776 42.1787 24.6793 43.9643 21.1224 44.6221C17.4294 45.2881 13.6015 44.7562 10.2819 43.1158C6.96224 41.4754 4.35322 38.8265 2.89315 35.6142C-0.145061 28.904 2.29968 21.0521 9.20793 17.26ZM28.3603 21.4891C25.4438 18.5334 22.005 16.8747 17.8154 16.7243C17.3904 16.7592 16.965 16.661 16.6073 16.4455C16.2496 16.23 15.9802 15.9096 15.8423 15.5355C14.6351 12.8853 12.4288 8.29907 12.2918 7.95605C12.0078 7.32638 10.8209 7.72109 10.6789 7.37807C10.5368 7.03504 11.6375 6.43829 11.9824 6.15635C12.5465 5.74228 13.0571 5.26925 13.5041 4.74666C14.6453 3.11142 13.8844 1.68763 11.8049 1.49967C11.2593 1.46682 10.7115 1.49045 10.1716 1.57015C7.85775 1.89836 5.6392 2.65593 3.64889 3.79746C3.12075 4.05848 2.66753 4.43261 2.32699 4.88868C1.98645 5.34475 1.76843 5.86958 1.69105 6.41949C1.46788 7.99834 2.33016 8.99452 4.05469 8.98512C4.96022 8.91828 5.85993 8.79584 6.74796 8.6186C7.20952 8.56221 8.17325 8.23328 8.42686 8.5951C8.68047 8.95692 8.05655 10.2068 8.37609 10.9446C8.96446 12.3214 9.50723 13.717 10.0195 15.122C10.3137 15.9161 10.8767 16.8512 10.6434 17.5278C10.4101 18.2045 9.38547 18.7778 8.66016 19.3369C7.03529 20.5202 5.7133 22.0221 4.78901 23.7347C3.86471 25.4472 3.36101 27.3281 3.31411 29.2424C3.31411 29.5478 3.36486 29.8579 3.40544 30.3137C5.71326 28.4059 8.07687 28.5281 10.5064 29.6794C10.7499 29.7968 11.0136 29.9096 11.2469 30.013C13.0881 30.7695 14.0366 30.4077 14.762 28.6456C15.0714 27.8985 15.2692 27.1043 15.6445 26.376C17.019 23.6788 20.3261 23.0867 22.6694 25.1261L23.1766 25.5631C23.7396 26.0612 24.2874 26.672 25.17 26.4371C26.0525 26.2021 26.1843 25.3986 26.3162 24.6938C26.3942 24.0541 26.6182 23.4372 26.9732 22.8838C27.3283 22.3305 27.8063 21.8535 28.3755 21.4844L28.3603 21.4891ZM29.3747 22.8612C28.5226 23.4767 28.4364 23.566 28.2284 24.2709C28.0813 24.8018 28.0053 25.3563 27.8227 25.8779C27.0213 28.1851 24.6374 28.8335 22.6187 27.2876C22.1115 26.8882 21.6043 26.4183 21.097 25.9907C20.7836 25.7071 20.3771 25.5282 19.9418 25.4823C19.5065 25.4363 19.0671 25.5259 18.6929 25.7369C18.3187 25.8976 17.9836 26.1271 17.7081 26.4114C17.4326 26.6958 17.2223 27.029 17.09 27.391C16.8821 27.9502 16.6995 28.5234 16.4814 29.0779C15.3706 31.8691 13.3113 32.6679 10.3949 31.4274C9.73491 31.1268 9.0576 30.8601 8.366 30.6285C7.67371 30.3925 6.92051 30.356 6.20539 30.5237C5.49027 30.6914 4.84666 31.0556 4.359 31.5683C4.06074 31.7995 3.85047 32.1134 3.75916 32.4636C3.66785 32.8138 3.70032 33.1819 3.85179 33.5137C4.61048 35.6096 5.85521 37.5262 7.49862 39.129C12.0635 43.4379 19.2609 44.4294 24.7896 41.4785C27.5003 40.0714 29.6254 37.8648 30.8266 35.21C32.0278 32.5551 32.2363 29.6044 31.4188 26.8271C31.0696 25.3803 30.3765 24.0238 29.39 22.8565L29.3747 22.8612Z" fill="white"/>
</g>
</svg>
