<svg width="39" height="41" viewBox="0 0 39 41" fill="none" xmlns="http://www.w3.org/2000/svg">
<g id="Layer_1" clip-path="url(#clip0_8_253)">
<path id="Vector" d="M22.6511 2.24658C24.9279 2.53283 27.122 3.27952 29.0994 4.44094C34.3111 7.43863 37.6478 11.8816 38.6643 17.7937C39.935 25.1776 37.5732 31.3747 31.8481 36.2641C31.6471 36.1985 31.6382 36.0119 31.6294 35.858C31.5927 35.2275 31.398 34.6335 31.2804 34.0231C31.0097 33.0116 30.599 32.0425 30.0603 31.1439C29.4142 30.0695 29.4876 29.6647 30.3271 28.7566C30.8961 28.1425 31.4435 27.5094 32.0416 26.9217C32.3057 26.6773 32.4794 26.3512 32.5347 25.996C32.5491 25.9364 32.5698 25.8785 32.5966 25.8233C32.7901 25.5118 33.1403 25.3693 33.3742 25.0981C33.6663 24.7627 33.6979 24.431 33.4008 24.0892C32.8786 23.4814 32.2338 23.0059 31.6307 22.4914C31.2905 22.2026 30.8784 22.2921 30.5749 22.6604C30.389 22.8861 30.2702 23.1648 30.0502 23.3641C29.9977 23.3989 29.9407 23.4265 29.8808 23.4461C29.0918 23.6567 28.6809 24.3288 28.1865 24.8762C27.7516 25.3592 27.3015 25.822 26.8362 26.2747C26.3709 26.7275 25.869 26.8347 25.2785 26.5862C24.8303 26.4098 24.3914 26.2107 23.9636 25.9897C23.2859 25.619 22.8497 25.0515 22.7725 24.2532C22.7725 22.6049 22.7422 20.9579 22.7447 19.3096C22.7303 19.0598 22.7515 18.8093 22.8079 18.5655C22.9078 18.2666 23.1721 18.2691 23.4211 18.2338C24.6514 18.0585 25.1078 16.9992 24.3871 15.989C24.2784 15.8364 24.1444 15.7002 24.1064 15.506C24.0947 15.3402 24.1171 15.1736 24.1722 15.0167C24.4857 13.7556 23.8207 12.8047 22.5108 12.642C22.3439 12.643 22.1798 12.5995 22.0354 12.5159C21.6852 11.8286 21.4272 11.0959 20.9417 10.4767C20.7091 10.179 20.9417 9.92683 21.1225 9.69604C21.5613 9.15376 21.9342 8.58246 22.1125 7.89389C22.324 7.1212 22.302 6.30343 22.0493 5.54316C21.976 5.32372 21.8938 5.10681 21.9532 4.86972C22.3325 4.18241 22.5943 3.46357 22.5272 2.65897C22.5173 2.5854 22.5232 2.51056 22.5446 2.43945C22.566 2.36833 22.6023 2.30258 22.6511 2.24658Z" fill="#3B296F"/>
<path id="Vector_2" d="M7.47248 36.2614C3.67939 33.1326 1.34791 29.1638 0.557679 24.3035C-0.979786 14.8564 4.71238 5.92009 13.4795 2.9905C14.6906 2.57933 15.9409 2.29324 17.2106 2.13672C17.4445 2.3612 17.2852 2.56803 17.1815 2.77612C16.7655 3.05987 16.2686 3.17967 15.8451 3.46595C15.0018 4.03597 14.4341 4.78887 14.2204 5.77002C14.0813 6.40058 13.7614 6.71838 13.1166 6.86845C11.6234 7.21526 10.6524 8.71222 10.8724 10.2067C10.9678 10.944 11.3348 11.6195 11.902 12.1018C12.4692 12.5841 13.196 12.8386 13.941 12.8159C14.1508 12.8159 14.3595 12.7894 14.5731 12.7768C14.7603 12.7667 14.9449 12.8235 14.96 13.0164C15.0245 13.874 15.4658 14.5953 15.7743 15.3659C15.6478 15.55 15.4266 15.5853 15.2572 15.7014C14.7413 16.057 14.4758 16.6283 14.5972 17.1428C14.7426 17.7633 15.199 18.1517 15.8704 18.24C16.0739 18.2652 16.2927 18.24 16.4444 18.4304C16.5204 18.581 16.5553 18.7489 16.5455 18.9172C16.5531 20.6735 16.5531 22.4311 16.5455 24.19C16.5464 24.6583 16.3683 25.1093 16.0474 25.4511C15.3836 26.1851 14.4758 26.4751 13.5654 26.7122C13.1103 26.8383 12.7322 26.5293 12.3934 26.2242C11.6436 25.5495 11.0506 24.7272 10.3211 24.0336C10.0796 23.8053 9.86212 23.538 9.50304 23.485C9.44076 23.4694 9.38082 23.4457 9.32477 23.4144C9.08075 23.2366 8.97075 22.9541 8.78994 22.7258C8.43213 22.2731 7.97064 22.205 7.54455 22.5997C7.06915 23.0398 6.58237 23.4674 6.10444 23.905C5.53927 24.422 5.57088 24.7966 6.15628 25.3124C6.34467 25.4776 6.57478 25.5974 6.71006 25.8168C6.73793 25.8717 6.76038 25.9291 6.77708 25.9883C6.84331 26.3845 7.04584 26.7452 7.34984 27.0086C8.00225 27.6303 8.58891 28.3113 9.19075 28.9785C9.74833 29.5964 9.84569 30.063 9.44362 30.7995C8.89363 31.8084 8.36006 32.8274 8.05282 33.9422C7.99605 34.0939 7.96031 34.2526 7.94661 34.4139C7.86443 34.8969 7.71271 35.366 7.69374 35.8617C7.67857 36.0117 7.65834 36.1845 7.47248 36.2614Z" fill="#3B296F"/>
<path id="Vector_3" d="M31.3854 33.9426C31.7154 34.6817 31.7495 35.48 31.8443 36.2644C28.689 38.8676 24.7684 40.373 20.6775 40.5522C19.4321 39.0679 18.8821 37.3565 18.9718 35.427C18.9908 35.026 19.0793 34.6388 19.1223 34.2428C19.1325 34.1776 19.1512 34.114 19.1779 34.0536C19.3689 33.6967 19.7102 33.4924 20.0048 33.2402C22.7219 30.7936 26.5631 30.5124 29.7227 32.5415C30.3347 32.9338 30.9997 33.2755 31.3854 33.9426Z" fill="#CDDC2A"/>
<path id="Vector_4" d="M19.2791 34.1556C19.1248 35.3549 19.0439 36.5517 19.384 37.7397C19.6205 38.5695 19.9277 39.3501 20.5156 40.0021C20.6522 40.1522 20.8128 40.3124 20.6775 40.5507C15.7351 40.7765 11.3212 39.3678 7.47374 36.2629C7.51345 35.591 7.62234 34.925 7.79868 34.2754C8.14006 33.9324 8.3196 34.3019 8.49787 34.4671C9.2859 35.1954 10.2071 35.7657 11.2112 36.1469C14.0054 37.2251 16.3875 36.3865 18.5597 34.568C18.7733 34.3927 18.9175 34.0837 19.2791 34.1556Z" fill="#96C93D"/>
<path id="Vector_5" d="M17.1057 2.72732L17.2119 2.13711C18.0375 0.0915649 20.2918 -0.232543 21.6536 0.829322C22.1328 1.20766 22.4122 1.71212 22.6511 2.24305C22.8193 3.21916 22.7068 4.13474 22.0265 4.9078C21.9427 5.16789 21.7676 5.38909 21.5335 5.53079C19.9264 6.51194 17.4129 5.90913 16.9893 3.51299C16.9544 3.381 16.9467 3.2433 16.9667 3.10826C16.9867 2.97321 17.034 2.84362 17.1057 2.72732Z" fill="#CDDC2A"/>
<path id="Vector_6" d="M20.0301 33.3722L19.2981 34.0318C18.8366 34.0066 18.5647 33.6534 18.2284 33.4138C16.787 32.4049 15.2319 31.7605 13.4238 31.7908C11.6158 31.821 10.0733 32.4617 8.67867 33.5563C8.45108 33.7329 8.26143 33.9839 7.92005 33.9347C8.13878 32.8627 8.63189 31.9043 9.17177 30.9673C9.71166 30.0303 9.67752 29.7213 8.93787 28.9293C8.26776 28.2104 7.60017 27.4903 6.92753 26.7753C6.70247 26.5344 6.5242 26.291 6.69236 25.9442C7.13109 25.8584 7.37005 26.2191 7.68235 26.402C8.31453 26.7702 8.54085 26.7627 9.07315 26.2683C10.1883 25.2418 10.1883 25.243 9.48533 23.8369C9.41326 23.6944 9.28051 23.5544 9.412 23.3778C9.7812 23.2164 10.0025 23.4434 10.2237 23.6805C10.9545 24.4637 11.6828 25.2493 12.4225 26.0249C13.0306 26.663 13.3277 26.6315 14.1584 26.373C15.9285 25.8244 16.5974 24.7108 16.4178 22.8772C16.2737 21.4016 16.3622 19.9022 16.347 18.414C16.5771 18.1681 16.8856 18.206 17.1739 18.2009C18.1627 18.1833 19.1514 18.2009 20.1401 18.2097C20.8431 18.182 21.5474 18.1984 22.2503 18.2097C22.4969 18.2097 22.7561 18.2097 22.9356 18.4267C22.9255 20.4352 22.9158 22.4446 22.9065 24.4548C22.5563 24.3287 22.6309 24.0223 22.6195 23.77C22.593 23.205 22.6056 22.635 22.6094 22.0713C22.6094 21.6715 22.4286 21.4962 22.0367 21.5051C21.8268 21.5051 21.6156 21.5051 21.4045 21.5051C20.4208 21.5328 19.9012 22.036 19.8506 23.0272C19.8228 23.5506 19.8417 24.0752 19.8405 24.5998C19.8405 26.8245 19.8683 29.0491 19.8253 31.2712C19.8215 31.985 20.1161 32.6584 20.0301 33.3722Z" fill="#7DD1E9"/>
<path id="Vector_7" d="M17.1057 2.72705C17.1891 4.40056 17.7897 5.33758 19.0983 5.69448C20.2071 5.99841 21.2085 5.75249 22.0266 4.90754C22.5323 6.23171 22.6233 7.54075 21.9305 8.83971C21.6599 9.34416 21.0049 9.7225 20.9658 10.1727C20.9266 10.6229 21.6232 11.0252 21.8104 11.5675C21.9128 11.8626 21.9861 12.1665 22.0721 12.4654C22.0063 12.6697 21.8192 12.7177 21.6548 12.811C20.8595 13.2486 20.5017 13.9119 20.613 14.82C20.6395 15.0407 20.7179 15.2752 20.4866 15.4505C20.3528 15.5205 20.2025 15.5532 20.0516 15.5451C18.896 15.5918 17.7416 15.5741 16.5873 15.5691C16.28 15.5691 15.9475 15.6208 15.7022 15.3471C15.2205 14.6964 14.8475 14.0015 14.85 13.1666C14.85 12.9056 14.7881 12.898 14.5301 12.9321C12.6829 13.1767 11.2896 12.3015 10.7876 10.6255C10.2819 8.92925 11.3971 7.00099 13.1406 6.68067C13.7096 6.57599 13.8891 6.35404 14.0257 5.79788C14.4328 4.20004 15.4759 3.15583 17.1057 2.72705Z" fill="#96C93D"/>
<path id="Vector_8" d="M20.0301 33.3725C19.7762 32.7972 19.6469 32.1749 19.6508 31.5464C19.6622 28.7341 19.6508 25.9205 19.6571 23.1082C19.6571 21.8597 20.221 21.2947 21.4563 21.2935C22.813 21.2935 22.7978 21.2935 22.8206 22.6403C22.8307 23.2394 22.6941 23.851 22.9167 24.44C23.0823 25.1752 23.5488 25.6456 24.2253 25.9394C24.5704 26.0908 24.9245 26.2244 25.2583 26.3985C25.855 26.7112 26.3532 26.5637 26.7894 26.1072C27.5569 25.3 28.3168 24.4854 29.0779 23.6719C29.2992 23.4348 29.5179 23.2028 29.8884 23.3693C29.9996 23.817 29.6355 24.0831 29.4661 24.416C29.1373 25.0466 29.1677 25.2988 29.705 25.7755C30.8278 26.7768 30.8278 26.7768 32.1554 26.0378C32.2982 25.9583 32.436 25.8411 32.6181 25.9382C32.7812 26.285 32.6067 26.5309 32.3791 26.7718C31.6635 27.5335 30.9513 28.2986 30.2424 29.067C29.6772 29.6761 29.6266 30.0911 30.0451 30.8061C30.6229 31.7948 31.1565 32.8012 31.3866 33.9387C30.3751 33.1127 29.3181 32.3548 28.0841 31.8957C25.2646 30.8477 22.6853 31.3118 20.3336 33.1568C20.2349 33.2338 20.1313 33.3044 20.0301 33.3725Z" fill="#BDE5ED"/>
<path id="Vector_9" d="M26.9816 12.2249C26.8488 11.8352 26.4683 11.7772 26.1635 11.6246C25.8255 11.4582 25.5272 11.2214 25.2888 10.9301C25.0503 10.6389 24.8774 10.3 24.7815 9.93632C24.6856 9.57267 24.6691 9.19274 24.733 8.82218C24.7969 8.45162 24.9398 8.09904 25.1521 7.78828C25.4953 7.26094 26.0177 6.87467 26.6233 6.70026C27.2289 6.52584 27.8773 6.57498 28.4495 6.83865C29.7417 7.44651 30.3284 8.73033 29.9136 10.052C29.8707 10.192 29.8125 10.3257 29.7607 10.4619C29.6254 10.5766 29.4876 10.5073 29.3472 10.4757C27.9906 10.1718 27.3849 10.5627 27.1358 11.897C27.1297 12.0223 27.0743 12.1401 26.9816 12.2249Z" fill="#4A3379"/>
<path id="Vector_10" d="M20.1591 15.3876L20.546 15.3258C21.6308 15.0421 22.7245 15.1556 23.8169 15.2665C23.8897 15.281 23.9585 15.311 24.0185 15.3546C24.0785 15.3981 24.1284 15.4541 24.1646 15.5188C25.2418 16.5277 25.128 17.8266 23.9294 18.3235C23.6045 18.4584 23.2732 18.3903 22.9445 18.4206L20.1629 18.3941C19.3461 18.1104 18.9617 17.5971 18.9883 16.8253C19.0127 16.0972 19.403 15.618 20.1591 15.3876Z" fill="#E5F4F6"/>
<path id="Vector_11" d="M24.1621 15.5136C23.2176 15.2399 22.2491 15.4152 21.2932 15.3648L20.5422 15.3257C20.106 13.8552 20.8178 12.8173 22.0695 12.4692C23.382 12.4844 24.0559 12.9295 24.3694 13.9485C24.5414 14.5123 24.377 15.0104 24.1621 15.5136Z" fill="#CCDB2A"/>
<path id="Vector_12" d="M26.9816 12.2245C26.9993 11.7302 26.9285 11.2434 27.3128 10.8032C27.8186 10.2156 28.5772 9.9381 29.7632 10.4615C30.3486 11.092 30.6141 11.8033 30.2361 12.6394C29.9339 13.3091 29.2802 13.6773 28.49 13.6017C27.6542 13.5209 27.1826 13.0115 26.9816 12.2245Z" fill="#5C4A83"/>
<path id="Vector_13" d="M30.0097 23.3013C30.1513 23.049 30.2727 22.7817 30.4384 22.5446C30.5077 22.4341 30.6011 22.3405 30.7116 22.2708C30.822 22.2011 30.9468 22.157 31.0766 22.1417C31.2064 22.1265 31.338 22.1405 31.4617 22.1827C31.5854 22.2249 31.698 22.2943 31.7912 22.3857C32.3577 22.8801 32.9089 23.3904 33.445 23.9167C33.9508 24.4211 33.9267 24.9042 33.3767 25.3455C33.1517 25.5259 32.8963 25.6709 32.6548 25.8323C32.4487 25.9723 32.2869 25.8437 32.1629 25.7151C31.5434 25.0706 30.7936 24.5674 30.2007 23.8965C30.0515 23.73 29.8694 23.5648 30.0097 23.3013Z" fill="#FAC639"/>
<path id="Vector_14" d="M30.0097 23.3013C30.0704 23.7162 30.4194 23.9217 30.6912 24.1538C31.3462 24.7137 31.8962 25.396 32.6548 25.8336C32.6446 25.8706 32.6319 25.9068 32.6168 25.9421C32.2691 26.1691 31.9164 26.3885 31.5763 26.6243C31.1173 26.9409 30.7064 26.927 30.2778 26.5449C28.9199 25.3367 28.9148 25.343 29.8871 23.3731L30.0097 23.3013Z" fill="#F5AB24"/>
<path id="Vector_15" d="M7.92385 33.9287C9.00488 33.0207 10.163 32.2502 11.5475 31.8769C14.0611 31.1984 16.299 31.8391 18.3624 33.2982C18.6861 33.5277 18.9858 33.7888 19.2981 34.0359C19.2905 34.0763 19.2841 34.1154 19.2791 34.162C18.5015 34.8304 17.7201 35.4749 16.806 35.9781C13.8562 37.6049 10.6271 36.6086 8.43844 34.6463C8.26143 34.4874 8.1704 34.1204 7.79868 34.2806L7.92385 33.9287Z" fill="#6CBD45"/>
<path id="Vector_16" d="M20.1591 15.3874C18.8745 16.0911 18.6975 17.5111 20.1591 18.3888L16.3521 18.4077C15.6681 18.4758 15.0599 18.3397 14.6427 17.7394C14.0004 16.8175 14.4985 15.7039 15.706 15.3521L20.1591 15.3874Z" fill="#BDE5ED"/>
<path id="Vector_17" d="M10.1769 14.8543C10.1656 15.8392 9.45246 16.5164 8.43339 16.5076C8.20817 16.5071 7.98537 16.4613 7.77829 16.3729C7.57122 16.2846 7.38415 16.1555 7.22823 15.9934C7.07232 15.8313 6.95077 15.6395 6.87086 15.4295C6.79096 15.2194 6.75433 14.9955 6.76317 14.771C6.77076 13.7798 7.47753 13.0975 8.49155 13.1026C9.56247 13.1089 10.1896 13.7596 10.1769 14.8543Z" fill="#4A3379"/>
<path id="Vector_18" d="M6.65822 25.8324C6.61878 25.8208 6.58064 25.8052 6.54442 25.7858C5.18523 24.8929 5.15995 24.5549 6.36488 23.4476L7.33212 22.5573C8.02752 21.9179 8.54338 21.991 9.04028 22.8095C9.13637 22.9684 9.21349 23.1387 9.29947 23.3026C9.42591 23.5347 9.28936 23.6973 9.15154 23.8537C8.53327 24.5562 7.76074 25.0909 7.10074 25.7555C6.98821 25.8677 6.84028 25.9623 6.65822 25.8324Z" fill="#FAC639"/>
<path id="Vector_19" d="M6.65822 25.8321C7.61028 25.0628 8.63948 24.373 9.29947 23.2998L9.42591 23.3717C9.59786 23.6769 9.76982 23.9821 9.93924 24.2898C10.029 24.4537 10.1554 24.6114 10.1921 24.7867C10.3957 25.8094 9.40821 26.0478 8.92775 26.614C8.61925 26.9785 8.17925 26.9142 7.78982 26.6582C7.42569 26.4198 7.06408 26.1777 6.70247 25.9381C6.68392 25.9045 6.66909 25.8689 6.65822 25.8321Z" fill="#F5AB24"/>
<path id="Vector_20" d="M25.5958 36.2983C25.6022 37.8343 24.8916 38.5809 23.4376 38.5683C22.5146 38.5607 21.8951 38.0462 21.6182 37.0549C21.3956 36.2617 21.7332 35.3272 22.4198 34.911C23.0595 34.5327 23.7271 34.3397 24.4288 34.7774C24.6994 35.3647 25.0981 35.8843 25.5958 36.2983Z" fill="#96C93D"/>
<path id="Vector_21" d="M25.5958 36.2985C24.9055 36.0273 24.468 35.562 24.4288 34.7851C24.5654 33.9124 25.1204 33.3311 25.8601 33.2857C26.5997 33.2403 27.1991 33.7208 27.4115 34.4938C27.6239 35.2669 27.0031 36.1598 26.161 36.2745C25.9732 36.2933 25.7845 36.3013 25.5958 36.2985Z" fill="#F3F2B0"/>
</g>
<defs>
<clipPath id="clip0_8_253">
<rect width="38.687" height="40.3332" fill="white" transform="translate(0.308594 0.240234)"/>
</clipPath>
</defs>
</svg>
