<svg width="208" height="52" viewBox="0 0 208 52" fill="none" xmlns="http://www.w3.org/2000/svg">
<g id="Group 727">
<g id="Group 724">
<path id="Vector" d="M126.08 35.9984L122.827 35.7824C122.587 35.7687 122.359 35.6745 122.184 35.5165C122.009 35.3585 121.898 35.1466 121.871 34.9182C121.498 31.8258 120.911 27.6747 120.107 22.4651C120.07 22.2186 120.131 21.9678 120.279 21.7624C120.426 21.5571 120.649 21.4123 120.903 21.3568L123.006 20.9052C123.144 20.8755 123.286 20.8732 123.425 20.8986C123.564 20.9239 123.696 20.9763 123.813 21.0525C123.93 21.1287 124.029 21.2271 124.105 21.3415C124.18 21.4559 124.23 21.5839 124.251 21.7176C124.552 20.566 124.982 19.449 125.535 18.3861C126.675 16.0484 128.216 14.8789 130.158 14.8774C130.709 14.8792 131.253 14.9947 131.752 15.2163C132.252 15.4378 132.695 15.76 133.052 16.1608C134.24 17.4038 134.993 19.3151 135.313 21.8947C135.48 23.3597 135.56 24.8327 135.55 26.3064C135.55 27.9484 135.46 30.0196 135.279 32.52C135.252 32.9067 135.229 33.2438 135.213 33.529C135.199 33.778 135.086 34.0125 134.898 34.185C134.709 34.3575 134.459 34.4551 134.198 34.458L132.057 34.4904C131.917 34.4926 131.777 34.4672 131.647 34.4158C131.517 34.3644 131.399 34.2881 131.301 34.1915C131.203 34.0949 131.126 33.9802 131.076 33.8544C131.027 33.7285 131.004 33.5942 131.011 33.4598C131.029 33.0709 131.057 32.6244 131.097 32.1203C131.267 29.8057 131.351 27.7806 131.35 26.045C131.35 23.7189 131.152 21.961 130.757 20.7713C130.588 20.2916 130.448 20.0108 130.335 19.9308C130.26 19.8603 130.166 19.8116 130.063 19.7904C129.837 19.7904 129.516 20.1778 129.098 20.9527C128.495 22.1957 127.968 23.8867 127.516 26.0256C127.109 28.0694 126.713 30.6886 126.329 33.8833C126.317 34.0432 126.302 34.1987 126.279 34.3435C126.178 35.199 126.103 35.7341 126.053 35.9487L126.08 35.9984Z" fill="#F5F5F5"/>
<path id="Vector_2" d="M60.1086 36.7498C60.0156 36.761 59.9219 36.7646 59.8283 36.7606C55.6324 36.5316 53.5337 34.1385 53.5322 29.5813C53.5322 29.4517 53.5639 28.141 53.6272 25.6492C53.6844 23.3044 54.374 18.7457 55.6957 11.9733C55.7283 11.8026 55.7965 11.6398 55.8961 11.4947C55.9958 11.3496 56.1249 11.2251 56.2759 11.1285C56.4269 11.032 56.5966 10.9655 56.775 10.9328C56.9533 10.9002 57.1368 10.9021 57.3144 10.9385L62.2563 11.9366C62.4357 11.9725 62.6057 12.0428 62.7559 12.1433C62.9061 12.2438 63.0335 12.3723 63.1302 12.5211C63.227 12.67 63.2912 12.836 63.319 13.0092C63.3467 13.1824 63.3374 13.3592 63.2917 13.5289C61.257 21.2001 60.2397 26.211 60.2397 28.5616V28.5897C60.243 28.7829 60.2922 28.9729 60.3837 29.1453C60.4751 29.3177 60.6064 29.468 60.7676 29.5847C60.9287 29.7015 61.1156 29.7817 61.3139 29.8193C61.5123 29.8569 61.717 29.8509 61.9126 29.8017C62.9932 29.5381 63.8975 29.3149 64.6255 29.1319C64.8175 29.0833 65.0183 29.0754 65.2138 29.1091C65.4093 29.1427 65.5946 29.217 65.7568 29.3266C65.919 29.4362 66.0539 29.5786 66.1522 29.7435C66.2505 29.9085 66.3096 30.0921 66.3255 30.2813L66.6827 34.423C66.7091 34.7219 66.6261 35.0203 66.448 35.2673C66.2699 35.5143 66.0077 35.6947 65.7061 35.7776C64.4702 36.1147 62.6044 36.4387 60.1086 36.7498Z" fill="#F5F5F5"/>
<path id="Vector_3" d="M91.8508 34.8899C91.0973 28.3739 89.8592 22.4585 88.1365 17.1437C86.3807 11.7165 83.7003 9.00293 80.0952 9.00293C79.9121 9.00293 79.729 9.00293 79.5368 9.02021C76.5557 9.2305 73.7517 14.2652 71.1248 24.1242C71.1034 24.2051 71.0639 24.2805 71.0091 24.3454C70.9543 24.4102 70.8854 24.463 70.8071 24.4999C70.7289 24.5369 70.6432 24.5572 70.556 24.5595C70.4688 24.5618 70.3821 24.5459 70.3019 24.5131C70.2227 24.4801 70.1371 24.4639 70.0508 24.4655C69.9645 24.4672 69.8796 24.4866 69.8018 24.5225C69.7241 24.5584 69.6554 24.6099 69.6005 24.6736C69.5456 24.7372 69.5056 24.8114 69.4835 24.8912L68.5905 28.0757C68.5545 28.2053 68.5669 28.3429 68.6255 28.4647C68.684 28.5865 68.7852 28.6851 68.9116 28.7433L69.4587 28.9896C69.5795 29.0449 69.6774 29.1373 69.7369 29.2521C69.7963 29.3668 69.8137 29.4973 69.7864 29.6227C69.476 31.0342 69.167 32.517 68.8596 34.0711C68.8323 34.2035 68.8544 34.3409 68.9222 34.4593C68.9899 34.5778 69.0989 34.6697 69.2303 34.7193L73.1933 36.2035C73.2748 36.2327 73.3619 36.2445 73.4486 36.2383C73.5353 36.232 73.6195 36.2078 73.6955 36.1673C73.7714 36.1268 73.8372 36.071 73.8883 36.0038C73.9394 35.9365 73.9746 35.8594 73.9913 35.7779C74.3033 34.2872 74.6047 33.0802 74.8956 32.1569C74.9196 32.0838 74.9587 32.016 75.0108 31.9576C75.0628 31.8992 75.1265 31.8515 75.1983 31.8172C75.27 31.7829 75.3483 31.7628 75.4283 31.758C75.5084 31.7533 75.5886 31.7641 75.6643 31.7896C77.2603 32.3181 78.9352 32.5968 80.6242 32.6149C81.8741 32.6197 83.1166 32.4329 84.3046 32.0618C84.3842 32.0379 84.4683 32.0302 84.5512 32.0394C84.6341 32.0486 84.714 32.0745 84.7857 32.1153C84.8574 32.1561 84.9193 32.2109 84.9673 32.2762C85.0153 32.3414 85.0484 32.4156 85.0642 32.4939C85.2903 33.5022 85.5525 35.07 85.851 37.1973C85.8634 37.2867 85.8977 37.3721 85.9511 37.4464C86.0044 37.5208 86.0754 37.5821 86.1581 37.6255C86.2409 37.6688 86.3331 37.6929 86.4274 37.6958C86.5217 37.6988 86.6154 37.6805 86.701 37.6424L91.5117 35.4819C91.6255 35.429 91.7192 35.3436 91.78 35.2375C91.8407 35.1315 91.8655 35.01 91.8508 34.8899ZM83.3099 25.6646C81.4422 26.0786 79.5156 26.194 77.6085 26.006C77.5256 25.9968 77.4456 25.9713 77.3735 25.931C77.3015 25.8907 77.2391 25.8365 77.1902 25.7719C77.1413 25.7073 77.107 25.6336 77.0895 25.5556C77.072 25.4777 77.0716 25.3971 77.0885 25.319C77.7984 21.9702 78.4238 19.7312 78.9649 18.602C79.5346 17.3979 80.0395 16.7958 80.4795 16.7958C80.8865 16.7958 81.3228 17.1674 81.784 17.9106C82.6626 19.3711 83.328 21.7477 83.7802 25.0403C83.7957 25.1801 83.7575 25.3206 83.6727 25.4355C83.5878 25.5504 83.4621 25.6318 83.319 25.6646H83.3099Z" fill="#F5F5F5"/>
<path id="Vector_4" d="M112.618 7.90069C111.412 6.91118 109.746 6.41499 107.619 6.41211C106.187 6.41211 104.523 6.81396 102.625 7.61766C100.728 8.42137 99.2033 10.2635 98.0519 13.1442C97.5743 14.4735 97.3232 15.8675 97.3081 17.2729C97.3028 18.9288 97.722 20.5607 98.5289 22.026C98.7489 22.4182 98.8083 22.8746 98.6955 23.3063C98.5826 23.7381 98.3057 24.1142 97.9185 24.3615C95.0384 26.1763 93.5991 28.421 93.6006 31.0957C93.792 34.6865 95.8266 37.2596 99.7045 38.8151C103.297 40.2555 106.696 40.9756 109.9 40.9756C113.875 40.8489 115.918 36.0425 116.031 26.5565C116.037 15.9989 114.899 9.78031 112.618 7.90069ZM109.645 29.0389C109.508 31.0323 109.211 32.3913 108.756 33.1158C108.44 33.6228 107.79 33.877 106.808 33.8784C105.779 33.8428 104.76 33.6794 103.776 33.3923C101.817 32.8738 100.841 32.0535 100.848 30.9315C100.874 30.3828 101.043 29.8488 101.339 29.3781C102.218 27.8672 104.098 27.1118 106.979 27.1118C107.257 27.1118 107.547 27.1118 107.85 27.1334C108.099 27.1447 108.343 27.2031 108.569 27.3052C108.794 27.4074 108.996 27.5512 109.163 27.7284C109.33 27.9056 109.459 28.1126 109.541 28.3376C109.624 28.5625 109.659 28.8009 109.645 29.0389ZM107.655 21.4772C105.194 20.8723 103.964 19.5083 103.964 17.3852C103.964 17.3075 103.991 16.534 104.047 15.0606C104.104 13.5871 104.895 12.6689 106.419 12.3016C106.674 12.2399 106.936 12.2072 107.199 12.2044C108.303 12.2044 109.048 12.895 109.432 14.2763C109.817 15.6043 110.009 17.4277 110.009 19.7467C110.008 20.0207 109.942 20.291 109.815 20.5368C109.688 20.7825 109.504 20.9973 109.277 21.1645C109.049 21.3318 108.785 21.4471 108.504 21.5017C108.223 21.5563 107.933 21.5486 107.655 21.4794V21.4772Z" fill="#F5F5F5"/>
<path id="Vector_5" d="M158.174 24.3595C157.787 24.1123 157.51 23.7361 157.397 23.3044C157.284 22.8726 157.344 22.4162 157.564 22.024C158.371 20.5587 158.79 18.9268 158.785 17.2709C158.769 15.8655 158.518 14.4716 158.041 13.1422C156.888 10.2616 155.363 8.41941 153.467 7.61571C151.571 6.81201 149.906 6.41016 148.471 6.41016C146.337 6.41016 144.672 6.90635 143.475 7.89873C141.196 9.77116 140.056 15.9912 140.055 26.5589C140.168 36.0434 142.211 40.8498 146.186 40.978C149.391 40.978 152.79 40.2578 156.381 38.8175C160.262 37.2634 162.297 34.6903 162.485 31.0981C162.49 28.4234 161.053 26.1772 158.174 24.3595ZM146.084 19.7685V19.749C146.084 17.4315 146.275 15.6081 146.658 14.2787C147.043 12.8974 147.789 12.2068 148.896 12.2068C149.159 12.2097 149.42 12.2424 149.674 12.304C151.2 12.6713 151.987 13.6003 152.043 15.0629C152.1 16.5256 152.129 17.3098 152.129 17.3876C152.129 19.5121 150.898 20.8761 148.437 21.4796C148.162 21.5497 147.873 21.5587 147.593 21.5059C147.313 21.453 147.049 21.3397 146.822 21.1746C146.595 21.0095 146.411 20.797 146.283 20.5533C146.155 20.3096 146.087 20.0411 146.084 19.7685ZM152.317 33.3925C151.333 33.6796 150.313 33.843 149.285 33.8786C148.302 33.8786 147.654 33.6244 147.339 33.116C146.887 32.3958 146.59 31.0325 146.448 29.0262C146.434 28.7899 146.469 28.5533 146.551 28.3301C146.633 28.1068 146.761 27.9013 146.926 27.7254C147.092 27.5494 147.292 27.4066 147.516 27.305C147.74 27.2034 147.982 27.1452 148.229 27.1336C148.535 27.1206 148.831 27.112 149.116 27.112C151.994 27.112 153.874 27.8674 154.754 29.3783C155.05 29.849 155.219 30.383 155.244 30.9317C155.244 32.0552 154.268 32.8754 152.317 33.3925Z" fill="#F5F5F5"/>
<path id="Vector_6" d="M182.451 14.6481C180.43 12.2427 177.93 11.04 174.95 11.04C171.971 11.04 169.476 12.2427 167.465 14.6481C165.444 17.0491 164.434 19.8894 164.434 23.169C164.434 26.4487 165.444 29.2832 167.465 31.6727C169.483 34.0738 171.978 35.2743 174.95 35.2743C177.922 35.2743 180.423 34.0738 182.451 31.6727C184.472 29.2717 185.483 26.4371 185.483 23.169C185.483 19.9009 184.472 17.0606 182.451 14.6481ZM178.26 27.0125C177.295 27.9675 176.192 28.445 174.95 28.445C173.708 28.445 172.61 27.9675 171.654 27.0125C170.684 26.0576 170.198 24.8088 170.198 23.2663C170.198 21.7237 170.684 20.4749 171.654 19.52C172.623 18.5621 173.724 18.084 174.957 18.0854C176.19 18.0868 177.293 18.565 178.267 19.52C179.231 20.4749 179.714 21.7237 179.714 23.2663C179.714 24.8088 179.229 26.0576 178.26 27.0125Z" fill="#F5F5F5"/>
<path id="Vector_7" d="M200.801 24.8545C201.79 26.4853 202.663 28.1779 203.414 29.9208C203.559 30.2433 203.574 30.6053 203.457 30.9377C203.34 31.2701 203.098 31.5496 202.779 31.7227L200.157 33.1443C199.977 33.2415 199.777 33.302 199.571 33.3218C199.366 33.3416 199.158 33.3204 198.961 33.2595C198.764 33.1986 198.583 33.0993 198.428 32.9679C198.274 32.8365 198.149 32.6758 198.063 32.4961C197.426 31.1595 196.879 30.0685 196.422 29.223C196.315 29.0253 196.162 28.8541 195.973 28.7232C195.785 28.5922 195.567 28.5051 195.338 28.4688C195.108 28.4325 194.873 28.448 194.65 28.514C194.428 28.5801 194.225 28.6949 194.057 28.8492C192.901 29.9151 191.816 30.96 190.802 31.9841C190.651 32.1369 190.467 32.256 190.263 32.3327C190.058 32.4095 189.839 32.442 189.619 32.4279C189.4 32.4139 189.187 32.3536 188.995 32.2515C188.803 32.1493 188.637 32.0079 188.51 31.8372L187.051 29.8928C186.877 29.6587 186.78 29.3799 186.773 29.0925C186.766 28.8052 186.85 28.5224 187.013 28.281C187.697 27.2613 188.959 25.7684 190.797 23.8023C191.042 23.5411 191.178 23.2026 191.178 22.8517C191.178 22.5008 191.042 22.1623 190.797 21.9011C190.044 21.1046 189.022 20.0964 187.732 18.8764C187.589 18.7408 187.477 18.5791 187.401 18.401C187.325 18.2228 187.288 18.0319 187.291 17.8396C187.295 17.6473 187.339 17.4577 187.42 17.282C187.502 17.1064 187.621 16.9484 187.768 16.8175L189.927 14.9076C190.205 14.6641 190.57 14.5303 190.947 14.5331C191.325 14.5359 191.687 14.6751 191.962 14.9227C193.152 16.0174 194.086 16.9212 194.763 17.6341C194.895 17.7735 195.055 17.8864 195.234 17.9663C195.413 18.0462 195.606 18.0914 195.803 18.0995C196 18.1075 196.197 18.0781 196.382 18.0131C196.567 17.9481 196.736 17.8486 196.881 17.7206C198.893 15.9954 201.001 14.3763 203.197 12.8703C203.381 12.7435 203.593 12.6586 203.817 12.6218C204.041 12.585 204.27 12.5974 204.488 12.658C204.706 12.7185 204.906 12.8258 205.075 12.9715C205.243 13.1172 205.374 13.2976 205.458 13.499L207.312 17.9928C207.448 18.3256 207.449 18.6953 207.314 19.0286C207.178 19.362 206.917 19.6346 206.582 19.7925C204.648 20.6701 202.818 21.742 201.122 22.99C200.841 23.2109 200.654 23.5217 200.595 23.8646C200.536 24.2075 200.609 24.5593 200.801 24.8545Z" fill="#F5F5F5"/>
</g>
<g id="Group 726">
<path id="Vector_8" d="M28.5755 34.4405C28.4467 33.9734 28.1891 33.5429 27.8319 33.1978C27.4423 32.8209 26.957 32.5558 26.4342 32.4345C25.9438 32.308 25.4367 32.3023 24.959 32.4178C24.6941 32.4794 24.4448 32.5861 24.2222 32.7332C24.0656 32.8366 23.925 32.9608 23.8041 33.1026C23.4049 33.5508 23.1777 33.8686 22.8282 34.2539C22.2516 34.8879 21.9731 34.992 21.7684 35.0524C21.4991 35.124 21.216 35.1471 20.9322 35.1204C20.2843 35.0364 19.6581 34.7946 19.1113 34.4175C18.5105 34.0527 18.1177 33.7338 17.7021 33.5132C17.6243 33.4611 17.5332 33.4332 17.4418 33.4336C17.3504 33.4341 17.2633 33.4627 17.1926 33.5155C17.0853 33.6134 17.0218 33.7495 17.0144 33.8971C16.9518 34.22 17.0483 35.8709 18.6888 37.5591C19.1671 38.0768 19.7292 38.5135 20.3496 38.8493C21.3211 39.3957 22.4134 39.67 23.5 39.6404C24.7524 39.581 25.9259 39.1233 26.8451 38.3358C27.6402 37.7074 28.2212 36.8575 28.5199 35.886C28.6674 35.4252 28.6866 34.9268 28.5755 34.4405ZM21.1766 37.3682C21.0766 37.3655 20.9777 37.3337 20.8926 37.2769C20.8075 37.22 20.7399 37.1406 20.6984 37.0488C20.657 36.957 20.6435 36.8569 20.6597 36.7611C20.6759 36.6654 20.7211 36.5783 20.7895 36.5109C20.8579 36.4436 20.9464 36.3989 21.0439 36.3827C21.1414 36.3665 21.2434 36.3794 21.3371 36.4198C21.4308 36.4602 21.5118 36.5263 21.57 36.6097C21.6282 36.693 21.6609 36.79 21.664 36.8882C21.6656 37.0174 21.6154 37.1389 21.5242 37.2265C21.433 37.3141 21.308 37.3609 21.1762 37.3567L21.1766 37.3682ZM24.0513 38.0538C23.9145 38.0499 23.7794 38.0063 23.6631 37.9285C23.5468 37.8506 23.4546 37.742 23.398 37.6165C23.3414 37.4909 23.3231 37.354 23.3454 37.2231C23.3677 37.0923 23.4295 36.9733 23.523 36.8812C23.6166 36.7892 23.7377 36.7283 23.871 36.7062C24.0043 36.6841 24.1438 36.7018 24.2718 36.757C24.3998 36.8123 24.5106 36.9026 24.5902 37.0166C24.6697 37.1306 24.7144 37.2631 24.7187 37.3974C24.7218 37.575 24.6535 37.7422 24.5285 37.8629C24.4035 37.9836 24.2319 38.048 24.0509 38.0423L24.0513 38.0538ZM26.0023 35.7257C25.8117 35.7196 25.6236 35.6583 25.4618 35.5493C25.3001 35.4404 25.1719 35.2887 25.0935 35.1136C25.0152 34.9385 24.9901 34.7477 25.0215 34.5654C25.0529 34.3831 25.1394 34.2175 25.2701 34.0894C25.4007 33.9614 25.5696 33.8768 25.7554 33.8462C25.9412 33.8156 26.1355 33.8405 26.3139 33.9177C26.4922 33.9948 26.6466 34.1208 26.7573 34.2797C26.8681 34.4386 26.9304 34.6233 26.9363 34.8103C26.9416 35.0593 26.8464 35.294 26.6714 35.4633C26.4963 35.6326 26.2557 35.7228 26.0019 35.7141L26.0023 35.7257Z" fill="#F5F5F5"/>
<g id="&#60;Radial Repeat&#62;">
<path id="Vector_9" d="M36.4877 33.4183C36.4746 33.4146 36.461 33.414 36.4482 33.4167C36.4353 33.4194 36.4235 33.4253 36.4139 33.4338C36.4043 33.4423 36.3971 33.4532 36.3929 33.4655C36.3888 33.4778 36.3878 33.4912 36.3902 33.5045L36.4219 33.703L36.4798 34.0696L36.006 33.8168L35.4072 33.5167C35.3889 33.5092 35.369 33.5083 35.3512 33.5143C35.339 33.5166 35.3277 33.5218 35.3182 33.5295C35.3087 33.5371 35.3014 33.5469 35.2966 33.5582C35.2924 33.5732 35.2929 33.5894 35.2981 33.6047L35.3992 34.2399L34.5854 34.0718L34.1728 33.9887C34.1627 33.9858 34.1523 33.9851 34.1423 33.9867C34.1323 33.9882 34.1229 33.992 34.1148 33.9977C34.105 34.0025 34.0971 34.0103 34.0922 34.0199C34.0857 34.0289 34.0813 34.0392 34.0793 34.0503C34.0772 34.0614 34.0776 34.073 34.0804 34.0842C34.0832 34.0955 34.0882 34.1063 34.0953 34.1158C34.1024 34.1253 34.1113 34.1334 34.1215 34.1395L34.2022 34.1871L34.2162 34.1877L35.8144 35.1627C35.8281 35.1712 35.8435 35.1758 35.8591 35.1762C35.8747 35.1765 35.8897 35.1725 35.9025 35.1647C35.9153 35.1568 35.9254 35.1454 35.9317 35.1317C35.9379 35.118 35.9401 35.1025 35.9379 35.087L35.8659 34.6409L36.9822 34.9499C36.9958 34.9539 37.0099 34.9545 37.0232 34.9516C37.0365 34.9488 37.0486 34.9425 37.0583 34.9334C37.0681 34.9243 37.0752 34.9127 37.0789 34.8997C37.0826 34.8867 37.0829 34.8727 37.0796 34.8591L36.9813 34.3909L38.2401 34.6344L38.2541 34.635C38.2736 34.6392 38.2935 34.6366 38.3102 34.6276C38.327 34.6186 38.3396 34.6038 38.3458 34.5857C38.352 34.5674 38.351 34.547 38.3431 34.5283C38.3353 34.5096 38.321 34.4939 38.3031 34.4841L37.0071 33.7126L36.5204 33.4221C36.5153 33.4193 36.5098 33.4176 36.5042 33.4169C36.4986 33.4163 36.493 33.4168 36.4877 33.4183Z" fill="#F5F5F5"/>
</g>
<g id="&#60;Radial Repeat&#62;_2">
<path id="Vector_10" d="M35.6925 40.2604C35.6805 40.2494 35.6663 40.2412 35.6511 40.2365C35.6358 40.2318 35.6199 40.2308 35.6047 40.2336C35.5895 40.2363 35.5755 40.2427 35.5638 40.2523C35.5521 40.2618 35.5431 40.2742 35.5376 40.2884L35.4582 40.4987L35.3077 40.8895L34.9453 40.3806L34.4881 39.7419C34.4749 39.7223 34.4555 39.7075 34.4333 39.7C34.4193 39.6956 34.4047 39.6944 34.3906 39.6966C34.3766 39.6988 34.3635 39.7043 34.3524 39.7126C34.3376 39.7226 34.326 39.7365 34.3188 39.753L34.0566 40.4386L33.2951 39.805L32.908 39.4717C32.8893 39.4557 32.8657 39.4471 32.8421 39.4478C32.829 39.4449 32.8155 39.4443 32.8025 39.4461C32.7908 39.4516 32.7805 39.4596 32.7723 39.4696C32.764 39.4795 32.7581 39.4912 32.7548 39.5039C32.7515 39.5167 32.7509 39.5301 32.753 39.5435C32.7552 39.5569 32.76 39.5698 32.7673 39.5816L32.8213 39.6747L32.8336 39.6938L33.9525 41.566C33.9622 41.5821 33.976 41.5955 33.9923 41.6047C34.0086 41.614 34.0269 41.6186 34.045 41.6182C34.063 41.6178 34.0803 41.6124 34.0947 41.6024C34.1092 41.5925 34.1203 41.5786 34.1268 41.5621L34.3118 41.0869L35.3137 42.0426C35.3259 42.0541 35.3406 42.0625 35.3564 42.0672C35.3722 42.0719 35.3886 42.0727 35.4042 42.0694C35.4197 42.0662 35.434 42.0591 35.4456 42.0488C35.4572 42.0384 35.4658 42.0251 35.4707 42.0101L35.6427 41.4878L36.8356 42.4567L36.8472 42.4572C36.8655 42.4716 36.8878 42.4795 36.9102 42.4798C36.9326 42.48 36.9539 42.4725 36.9703 42.4585C36.9868 42.4445 36.9975 42.4249 37.0007 42.4029C37.0038 42.381 36.9992 42.3581 36.9876 42.338L36.0686 40.8373L35.7234 40.2827C35.7156 40.2722 35.7047 40.2643 35.6925 40.2604Z" fill="#F5F5F5"/>
</g>
<g id="&#60;Radial Repeat&#62;_3">
<path id="Vector_11" d="M31.4038 45.7756C31.3978 45.7584 31.3877 45.7426 31.3746 45.7295C31.3615 45.7165 31.3456 45.7065 31.3284 45.7005C31.3111 45.6945 31.293 45.6927 31.2755 45.6951C31.258 45.6976 31.2417 45.7042 31.2279 45.7145L31.026 45.8682L30.6539 46.1489L30.5659 45.4674L30.4586 44.6087C30.4561 44.5832 30.4447 44.5589 30.4264 44.5399C30.4057 44.5209 30.3793 44.5098 30.3523 44.5086C30.3252 44.5074 30.2995 44.5163 30.2799 44.5335L29.6286 45.0225L29.2054 43.9991L28.9924 43.4815C28.9823 43.4548 28.9625 43.4322 28.9371 43.4188C28.9236 43.4122 28.9094 43.4076 28.8949 43.4053C28.8796 43.4037 28.8645 43.4052 28.8503 43.4098C28.8361 43.4143 28.8232 43.4218 28.8124 43.4318C28.8016 43.4417 28.7931 43.454 28.7875 43.4677C28.7819 43.4815 28.7793 43.4964 28.7798 43.5117L28.7841 43.6534L28.8774 46.0433C28.8786 46.0638 28.8854 46.0841 28.897 46.1018C28.9087 46.1195 28.9248 46.134 28.9436 46.1437C28.9624 46.1534 28.9831 46.158 29.0034 46.1568C29.0238 46.1556 29.043 46.1488 29.059 46.1371L29.5128 45.7949L30.0024 47.2437C30.0081 47.2615 30.0181 47.2778 30.0315 47.2913C30.0449 47.3048 30.0612 47.3149 30.079 47.3208C30.0967 47.3266 30.1153 47.328 30.1331 47.3248C30.1508 47.3217 30.1671 47.314 30.1806 47.3025L30.6514 46.9077L31.3212 48.485L31.3217 48.5013C31.3319 48.526 31.3504 48.5468 31.3739 48.5598C31.3973 48.5727 31.4241 48.577 31.4492 48.5719C31.4743 48.5681 31.4965 48.5554 31.5121 48.5361C31.5276 48.5169 31.5354 48.4922 31.5342 48.4665L31.4524 46.5343L31.4164 45.8087C31.4136 45.7973 31.4094 45.7862 31.4038 45.7756Z" fill="#F5F5F5"/>
</g>
<g id="&#60;Radial Repeat&#62;_4">
<path id="Vector_12" d="M24.587 48.3907C24.5904 48.3714 24.589 48.3513 24.583 48.332C24.5769 48.3127 24.5664 48.2948 24.5522 48.2798C24.5381 48.2648 24.5208 48.2532 24.5018 48.246C24.4828 48.2388 24.4626 48.2362 24.4431 48.2383L24.1559 48.2676L23.6232 48.321L23.9141 47.6379L24.281 46.7817C24.2894 46.7558 24.2886 46.7271 24.2786 46.7004C24.2734 46.6829 24.2644 46.6664 24.2524 46.6523C24.2403 46.6381 24.2254 46.6266 24.2087 46.6185C24.1857 46.6116 24.1617 46.6106 24.139 46.6155L23.2126 46.7098L23.3538 45.5284L23.4242 44.9308C23.4284 44.901 23.4208 44.87 23.403 44.844C23.3934 44.8298 23.3812 44.8175 23.3671 44.8077C23.3527 44.7976 23.3366 44.7906 23.3198 44.787C23.3029 44.7834 23.2858 44.7833 23.2695 44.7867C23.2532 44.7902 23.238 44.7971 23.225 44.807C23.212 44.8169 23.2014 44.8296 23.1939 44.8443L23.1322 44.9552L23.119 44.9778L21.8906 47.2439C21.8802 47.2635 21.8756 47.286 21.8775 47.3089C21.8794 47.3318 21.8875 47.3542 21.9012 47.3736C21.9148 47.3929 21.9333 47.4085 21.9545 47.4186C21.9758 47.4287 21.9991 47.4328 22.0217 47.4305L22.6701 47.3659L22.3606 48.976C22.357 48.9957 22.3584 49.0163 22.3647 49.0361C22.371 49.0559 22.382 49.0741 22.3967 49.0892C22.4114 49.1043 22.4294 49.1158 22.449 49.1227C22.4686 49.1296 22.4893 49.1316 22.5092 49.1285L23.2029 49.0218L23.0068 50.8526L23.0074 50.8735C22.9982 50.9038 23.0017 50.9375 23.0171 50.9671C23.0326 50.9967 23.0588 51.0198 23.09 51.0313C23.1211 51.0428 23.1547 51.0417 23.1832 51.0284C23.2118 51.0151 23.2331 50.9905 23.2423 50.9602L24.2117 49.1212L24.5766 48.4297C24.5828 48.4178 24.5864 48.4045 24.587 48.3907Z" fill="#F5F5F5"/>
</g>
<g id="&#60;Radial Repeat&#62;_5">
<path id="Vector_13" d="M9.04962 32.5632C9.06268 32.5611 9.07629 32.5621 9.08932 32.5663C9.10236 32.5705 9.11443 32.5776 9.12454 32.5871C9.13464 32.5967 9.14248 32.6083 9.1474 32.6211C9.15232 32.6338 9.15418 32.6474 9.15281 32.6605L9.13322 32.8568L9.09778 33.2193L9.55729 33.0077L10.1415 32.7575C10.1587 32.7526 10.1775 32.7534 10.1951 32.7599C10.2075 32.7633 10.2192 32.7695 10.2291 32.778C10.2391 32.7865 10.2471 32.797 10.2525 32.8088C10.2578 32.8241 10.2583 32.8403 10.254 32.8552L10.1941 33.4834L10.9997 33.3868L11.4059 33.3374C11.4261 33.3356 11.4467 33.3406 11.4646 33.3516C11.4751 33.3587 11.4841 33.3678 11.4911 33.3783C11.4977 33.3881 11.5023 33.399 11.5047 33.4103C11.507 33.4216 11.507 33.4331 11.5048 33.4441C11.5025 33.455 11.4979 33.4653 11.4914 33.4741C11.4848 33.4829 11.4765 33.4902 11.4667 33.4955L11.3911 33.5362L11.3747 33.5355L9.83229 34.3719C9.81893 34.3793 9.80344 34.3827 9.7876 34.3815C9.77177 34.3804 9.75624 34.3749 9.74281 34.3656C9.72937 34.3563 9.71857 34.3435 9.71166 34.3289C9.70474 34.3142 9.70199 34.2982 9.70372 34.2827L9.74848 33.8441L8.65049 34.0553C8.63685 34.0581 8.62246 34.0574 8.60866 34.0532C8.59486 34.049 8.5821 34.0414 8.57155 34.0312C8.56101 34.021 8.55303 34.0086 8.54835 33.9949C8.54368 33.9813 8.54247 33.967 8.54482 33.9533L8.61686 33.4926L7.36739 33.6276L7.35806 33.6272C7.33875 33.63 7.31855 33.6255 7.3014 33.6144C7.28425 33.6034 7.27139 33.5866 7.26534 33.5675C7.25689 33.5493 7.25575 33.529 7.26217 33.511C7.2686 33.4931 7.28207 33.4789 7.29967 33.4716L8.55158 32.8102L9.00996 32.5615L9.04962 32.5632Z" fill="#F5F5F5"/>
</g>
<g id="&#60;Radial Repeat&#62;_6">
<path id="Vector_14" d="M10.2791 39.4545C10.2903 39.4445 10.3041 39.4375 10.3191 39.4342C10.3341 39.4308 10.35 39.4313 10.3654 39.4354C10.3808 39.4395 10.3953 39.4471 10.4076 39.4577C10.4199 39.4684 10.4297 39.4816 10.4362 39.4963L10.5314 39.7167L10.7068 40.1197L11.0381 39.6393L11.4563 39.0373C11.4693 39.0202 11.4876 39.0081 11.5087 39.0025C11.5224 38.9995 11.5368 38.9995 11.5509 39.0025C11.565 39.0056 11.5786 39.0115 11.5906 39.0201C11.6069 39.0315 11.6196 39.0475 11.6269 39.0658L11.9329 39.7768L12.6567 39.2093L13.022 38.9211C13.0404 38.9063 13.0644 38.8999 13.0888 38.9031C13.101 38.9005 13.1138 38.9011 13.1261 38.9048C13.1382 38.9114 13.1491 38.9203 13.1579 38.931C13.1668 38.9417 13.1735 38.954 13.1776 38.967C13.1817 38.9801 13.1832 38.9936 13.1819 39.0069C13.1806 39.0201 13.1765 39.0327 13.17 39.0439L13.1215 39.13L13.1221 39.1487L12.1178 40.9263C12.1101 40.9421 12.0981 40.9551 12.083 40.9639C12.0679 40.9727 12.0503 40.977 12.0322 40.9762C12.0141 40.9754 11.9962 40.9696 11.9805 40.9594C11.9647 40.9492 11.9518 40.9351 11.9432 40.9185L11.7302 40.4279L10.7899 41.2856C10.7785 41.2961 10.7645 41.3033 10.7491 41.3068C10.7336 41.3102 10.7173 41.3097 10.7016 41.3053C10.6858 41.301 10.671 41.2928 10.6586 41.2817C10.6462 41.2705 10.6365 41.2566 10.6304 41.2413L10.4252 40.7022L9.28984 41.5652C9.27236 41.5779 9.25056 41.5839 9.22809 41.5822C9.20562 41.5804 9.18386 41.571 9.16647 41.5555C9.14907 41.54 9.1371 41.5194 9.13256 41.4971C9.12802 41.4748 9.1312 41.4522 9.14155 41.4331L9.96871 40.0101L10.2797 39.4754C10.2787 39.4684 10.2785 39.4614 10.2791 39.4545Z" fill="#F5F5F5"/>
</g>
<g id="&#60;Radial Repeat&#62;_7">
<path id="Vector_15" d="M14.9242 45.2465C14.9293 45.2298 14.9384 45.2148 14.9508 45.2028C14.9631 45.1909 14.9784 45.1823 14.9954 45.1778C15.0123 45.1733 15.0303 45.1731 15.048 45.177C15.0657 45.181 15.0825 45.1891 15.0969 45.2007L15.3087 45.3724L15.7013 45.689L15.7457 45.0109L15.8011 44.1593C15.8026 44.1349 15.8126 44.1123 15.8293 44.0955C15.8402 44.0836 15.8541 44.0747 15.8697 44.0697C15.8854 44.0648 15.9023 44.0638 15.919 44.067C15.9394 44.0682 15.9594 44.0764 15.9754 44.0903L16.6581 44.6378L17.0203 43.6487L17.2024 43.1484C17.2067 43.1359 17.2134 43.1245 17.2223 43.1149C17.2311 43.1053 17.242 43.0978 17.2541 43.0927C17.2668 43.0862 17.281 43.0828 17.2956 43.0829C17.3108 43.0826 17.3261 43.0854 17.3406 43.0912C17.3551 43.097 17.3685 43.1057 17.3799 43.1166C17.3914 43.1276 17.4006 43.1406 17.4071 43.1549C17.4135 43.1691 17.4171 43.1844 17.4175 43.1996L17.4218 43.3414L17.4734 45.7295C17.474 45.75 17.4689 45.7698 17.4585 45.7867C17.4482 45.8036 17.4331 45.8169 17.4149 45.825C17.3968 45.8332 17.3763 45.8359 17.3559 45.8328C17.3355 45.8298 17.3159 45.8211 17.2994 45.8077L16.8235 45.4248L16.4207 46.8345C16.416 46.8518 16.407 46.8674 16.3944 46.8797C16.3818 46.892 16.366 46.9008 16.3486 46.9051C16.3312 46.9094 16.3126 46.9092 16.2946 46.9044C16.2766 46.8997 16.2598 46.8906 16.2456 46.8779L15.7356 46.4378L15.1597 47.9583L15.1602 47.9745C15.1508 47.9974 15.1336 48.0158 15.1114 48.0266C15.0893 48.0374 15.0635 48.0401 15.0385 48.0341C15.0134 48.0281 14.9904 48.0139 14.9735 47.9938C14.9565 47.9736 14.9465 47.9488 14.9451 47.9234L14.9262 45.9985L14.9181 45.2741C14.919 45.2646 14.9211 45.2553 14.9242 45.2465Z" fill="#F5F5F5"/>
</g>
<path id="Vector_16" d="M43.1302 9.0009C42.2007 8.49212 41.4877 9.0434 40.8486 9.55324C38.6643 11.2587 36.3012 12.8017 34.3711 14.7503C32.7776 16.3499 30.8486 17.6601 29.475 19.4581C29.2101 18.9252 28.8786 18.4237 28.4888 17.9657C28.4392 17.9093 28.3754 17.8666 28.3045 17.8424C28.2337 17.8182 28.1586 17.8134 28.0877 17.8286L23.1884 18.8488C22.9302 18.9065 22.6635 18.9313 22.3947 18.9228L22.2443 18.918C21.9832 18.9102 21.7221 18.8686 21.4678 18.7944L16.4946 17.4616C16.4222 17.4417 16.3469 17.4417 16.277 17.4614C16.2072 17.4812 16.1455 17.52 16.0989 17.5735C15.7371 18.0077 15.4365 18.4892 15.2047 19.0063C13.7128 17.1154 11.6882 15.6824 10.0003 13.9788C7.94375 11.9041 5.47881 10.2082 3.18287 8.36098C2.50098 7.80933 1.7613 7.21207 0.862002 7.66297C0.00208697 8.09667 0.0257663 8.92478 0.081671 9.80692C0.150718 10.8831 0.492463 11.8941 0.862698 13.2886C0.976496 15.0414 2.40162 16.3034 4.06426 17.5014C7.31372 19.8795 10.9611 21.6483 14.8068 22.7111C14.8865 23.0954 15.0014 23.4739 15.15 23.842C12.85 23.2092 10.5437 22.6015 8.25026 21.9551C7.43286 21.7241 6.64467 21.3765 5.84838 21.0701C5.00684 20.7439 4.22843 20.5579 3.61846 21.3982C3.36581 21.7278 3.20916 22.1217 3.16388 22.5413C3.11861 22.9609 3.18628 23.3917 3.36024 23.7915C4.37478 25.1396 5.58155 25.9544 7.19367 26.2175C10.293 26.7281 13.2218 26.1502 16.158 25.5794C16.3864 25.8722 16.6361 26.149 16.9049 26.4073C15.4028 27.52 14.3237 29.0893 13.819 30.895C13.3144 32.7006 13.4096 34.6521 14.0913 36.4755C14.7729 38.2988 16.0068 39.9026 17.6198 41.0618C19.2327 42.221 21.1439 42.8773 23.085 42.9388C25.026 43.0002 26.8997 42.4637 28.4429 41.4044C29.9862 40.3451 31.1216 38.8163 31.6899 37.0325C32.2581 35.2487 32.2307 33.2994 31.6115 31.4582C30.9922 29.6169 29.8122 27.9761 28.2371 26.766C28.4908 26.5248 28.7236 26.2633 28.9334 25.9838C31.9115 26.7464 34.8825 27.5111 37.9557 27.1912C39.5521 27.0274 40.71 26.2874 41.6442 25.0033C41.7933 24.6137 41.834 24.1863 41.7622 23.763C41.6905 23.3397 41.5087 22.9351 41.2348 22.5889C40.571 21.7152 39.8027 21.8522 38.9798 22.1189C38.2012 22.3754 37.4333 22.6737 36.6312 22.8534C34.3715 23.3558 32.0988 23.8162 29.8364 24.3069C29.9614 23.9474 30.0519 23.5754 30.1068 23.1954C33.8949 22.371 37.439 20.8259 40.5449 18.6446C42.1353 17.5426 43.4864 16.3755 43.4878 14.6263C43.7734 13.2526 44.0501 12.2703 44.0513 11.1872C44.0475 10.3182 44.019 9.48766 43.1302 9.0009ZM29.6956 34.2446C29.6942 35.4282 29.3755 36.5711 28.7714 37.5588C28.1673 38.5466 27.2989 39.3446 26.2531 39.873C25.2073 40.4014 24.0209 40.6417 22.8125 40.5698C21.6041 40.4979 20.4161 40.1164 19.3674 39.4634C18.3187 38.8104 17.4461 37.9088 16.8368 36.8489C16.2276 35.7889 15.9032 34.6078 15.8959 33.4238C15.8887 32.2397 16.1989 31.0941 16.7956 30.1017C17.3923 29.1093 18.2545 28.3049 19.296 27.769C19.5006 27.6635 19.7324 27.6121 19.9699 27.6198L25.2423 27.7867C25.478 27.7941 25.7117 27.8593 25.9222 27.9764C27.0594 28.6124 28.0142 29.535 28.6804 30.6416C29.3465 31.7482 29.698 32.9955 29.6956 34.2446Z" fill="#F5F5F5"/>
<path id="Vector_17" d="M28.7881 8.43698C28.7215 7.90597 28.4627 7.40441 28.0593 7.02484C27.6559 6.64527 27.1353 6.41329 26.5933 6.37169L28.2013 2.3941L28.2483 2.39558C28.4811 2.40518 28.7049 2.33454 28.8808 2.19591C29.0567 2.05729 29.1736 1.85943 29.2113 1.63665C29.2489 1.41388 29.205 1.18024 29.087 0.976257C28.9691 0.772278 28.7845 0.610826 28.5654 0.519909C28.3464 0.428992 28.1066 0.414344 27.8876 0.478505C27.6687 0.542666 27.4844 0.681589 27.3667 0.871178C27.2491 1.06077 27.2055 1.28906 27.2436 1.51646C27.2816 1.74386 27.3988 1.95603 27.575 2.11615L25.8763 6.34669L17.9854 6.09692L16.0172 1.75031C16.1157 1.66334 16.1933 1.55589 16.2449 1.43488C16.2965 1.31386 16.321 1.18196 16.3168 1.04766C16.3107 0.855474 16.2467 0.665769 16.1329 0.502558C16.019 0.339348 15.8604 0.20997 15.6771 0.130801C15.4939 0.0516324 15.2942 0.0262327 15.1033 0.0578163C14.9125 0.0894 14.7391 0.176547 14.6051 0.308227C14.471 0.439907 14.3824 0.610199 14.3504 0.797548C14.3184 0.984897 14.3445 1.18088 14.4253 1.36069C14.5062 1.54049 14.6381 1.69605 14.8045 1.80765C14.9709 1.91925 15.1643 1.98188 15.3601 1.98763L15.4094 1.98919L17.2617 6.08323C16.7213 6.09056 16.2142 6.29001 15.8339 6.64478C15.4536 6.99954 15.2258 7.48569 15.1925 8.01354L14.764 13.9528C14.7232 14.4836 14.8792 15.0231 15.2037 15.4733C15.5281 15.9234 15.9994 16.2543 16.5318 16.4056L21.6998 17.8114C22.0931 17.9129 22.4992 17.9258 22.8869 17.849L27.9791 16.768C28.5031 16.6504 28.9546 16.3488 29.251 15.9181C29.5475 15.4875 29.6691 14.9565 29.5938 14.4223L28.7881 8.43698ZM17.301 12.3392C17.0967 12.4222 16.8621 12.4206 16.6481 12.3347C16.4928 12.2621 16.3591 12.149 16.2624 12.0084C16.1656 11.8678 16.11 11.7056 16.1018 11.5408L16.2757 8.7807C16.3503 8.28213 16.6167 7.84178 17.0213 7.54828C17.3869 7.29257 17.8393 7.17422 18.3023 7.21317L20.7563 7.29085C20.8065 7.28981 20.8571 7.29884 20.9049 7.31739C20.9527 7.33594 20.9968 7.36362 21.0344 7.39875C21.0998 7.46246 21.1415 7.54541 21.1522 7.63294C21.1709 8.22813 21.1896 8.82332 21.2083 9.4185C21.2321 9.78969 21.1544 10.1541 20.9831 10.4738C20.8189 10.7797 20.5736 11.0332 20.2713 11.2095L20.1483 11.2563C20.2736 11.0019 20.3139 10.7109 20.2638 10.4225C20.2136 10.1341 20.0755 9.86213 19.8679 9.64323C19.6603 9.42433 19.3932 9.26899 19.1027 9.19812C18.8121 9.12725 18.512 9.14426 18.2426 9.24684C17.9733 9.34943 17.7478 9.53268 17.5964 9.77192C17.445 10.0112 17.3749 10.2949 17.3957 10.585C17.4165 10.875 17.5271 11.1575 17.7126 11.3943C17.8982 11.6311 18.1497 11.8109 18.4335 11.9096C18.0481 12.0518 17.6747 12.2013 17.301 12.3392ZM25.5017 13.629C25.5017 13.629 24.9779 14.5204 24.5734 15.0999C24.1689 15.6794 23.2295 15.7488 23.2295 15.7488L22.8266 15.7798L22.7184 15.7764L22.2232 15.7838L21.7265 15.745L21.6184 15.7416L21.2127 15.6849C21.2127 15.6849 20.2695 15.5606 19.8252 14.9496C19.381 14.3387 18.8049 13.417 18.8049 13.417C18.7873 13.3819 18.7106 13.2573 18.8164 13.1869C18.8784 13.1405 18.9404 13.1724 19.0515 13.1944C19.1272 13.2129 20.3197 13.571 20.6531 13.6461L21.8525 13.8523L22.1604 13.862L22.466 13.8717L23.6548 13.7411C23.9842 13.687 25.1588 13.4038 25.2312 13.39C25.3457 13.3729 25.4059 13.3448 25.4662 13.3974C25.5908 13.4751 25.522 13.602 25.5017 13.629ZM27.5994 12.6814C27.3896 12.7537 27.1539 12.7405 26.9431 12.6444C26.5598 12.4779 26.1764 12.3091 25.7909 12.1471C26.0698 12.0664 26.3113 11.9021 26.4829 11.6763C26.6545 11.4505 26.748 11.1739 26.7508 10.884C26.7536 10.594 26.6655 10.3046 26.4985 10.0547C26.3314 9.80478 26.0934 9.60639 25.8165 9.48626C25.5396 9.36614 25.2371 9.33005 24.9498 9.38286C24.6625 9.43568 24.4042 9.57485 24.2097 9.78163C24.0152 9.98841 23.8938 10.2529 23.862 10.5393C23.8301 10.8258 23.8893 11.1206 24.0316 11.3838L23.9054 11.3291C23.5914 11.1333 23.3296 10.8637 23.1458 10.5469C22.9541 10.2157 22.8533 9.84562 22.8538 9.4752C22.8351 8.88001 22.8164 8.28483 22.7977 7.68964C22.8029 7.60214 22.8404 7.52146 22.9033 7.46252C22.9386 7.42947 22.981 7.40438 23.0278 7.38881C23.0746 7.37324 23.1248 7.36753 23.1752 7.37203L25.6268 7.44963C26.0883 7.43994 26.549 7.5872 26.9315 7.86658C27.3554 8.18631 27.65 8.64442 27.7561 9.14871L28.104 11.9253C28.1053 12.0892 28.0593 12.2471 27.9712 12.381C27.8832 12.5148 27.7567 12.619 27.6065 12.6816L27.5994 12.6814Z" fill="#F5F5F5"/>
</g>
</g>
</svg>
