<svg width="31" height="28" viewBox="0 0 31 28" fill="none" xmlns="http://www.w3.org/2000/svg">
<path id="Vector" d="M2 0C0.89543 0 0 0.895432 0 2V2.66667C0 3.77123 0.89543 4.66667 2 4.66667H29C30.1046 4.66667 31 3.77123 31 2.66667V2C31 0.89543 30.1046 0 29 0H2ZM2 11.6667C0.89543 11.6667 0 12.5621 0 13.6667V14.3333C0 15.4379 0.89543 16.3333 2 16.3333H29C30.1046 16.3333 31 15.4379 31 14.3333V13.6667C31 12.5621 30.1046 11.6667 29 11.6667H2ZM2 23.3333C0.89543 23.3333 0 24.2288 0 25.3333V26C0 27.1046 0.89543 28 2 28H29C30.1046 28 31 27.1046 31 26V25.3333C31 24.2288 30.1046 23.3333 29 23.3333H2Z" fill="#F5F5F5"/>
</svg>
