<svg width="49" height="49" viewBox="0 0 49 49" fill="none" xmlns="http://www.w3.org/2000/svg">
<g id="Layer_1" clip-path="url(#clip0_8_314)">
<path id="Vector" d="M48.9587 34.1499C48.9112 35.697 49.1516 37.258 48.8255 38.7884C48.4642 40.4887 47.1813 41.4875 45.4438 41.5059C44.1211 41.5197 42.7985 41.5182 41.4758 41.5243C41.1191 41.7878 40.7012 41.7418 40.297 41.7433C37.7752 41.7433 35.2538 41.7433 32.733 41.7433C32.272 41.7298 31.8108 41.759 31.3552 41.8307C30.7995 41.9272 30.2392 41.895 29.6805 41.895C26.1176 41.895 22.5563 41.895 18.9965 41.895C18.5901 41.9196 18.1821 41.8964 17.781 41.8261C17.647 41.7914 17.5231 41.7252 17.4197 41.633C16.8077 40.9456 16.3564 40.1303 16.0986 39.2464C15.5414 37.4219 16.244 35.1931 17.7458 34.0273C17.831 33.9868 17.921 33.9575 18.0137 33.94C18.3422 33.8933 18.6742 33.8764 19.0057 33.8894C28.5491 33.8894 38.0916 33.8894 47.6329 33.8894C48.0953 33.8986 48.5714 33.8067 48.9587 34.1499Z" fill="#BFADD4"/>
<path id="Vector_2" d="M0.0229483 34.1487C0.0229483 31.8509 0.00305557 29.5531 0.00305557 27.2553C0.00305557 19.4734 0.00305557 11.692 0.00305557 3.91107C0.00305557 1.47233 1.46809 -0.00592521 3.88686 -0.00439334C8.605 -0.00439334 13.3221 0.00122128 18.0382 0.012455C18.074 0.0801925 18.0927 0.155655 18.0927 0.232278C18.0927 0.308902 18.074 0.384364 18.0382 0.452102C17.8698 0.823324 17.8015 1.23224 17.8402 1.63809C17.8788 2.04394 18.0231 2.43256 18.2586 2.76523C18.3995 2.9797 18.525 3.2248 18.1454 3.37798C17.7676 3.44069 17.3838 3.4592 17.0018 3.43313C13.1022 3.43313 9.20356 3.43313 5.30597 3.43313C4.92479 3.43313 4.54054 3.40096 4.18232 3.58632C3.72306 3.73184 3.56997 4.0903 3.50262 4.51616C3.46138 4.87201 3.44705 5.23047 3.45975 5.58847V28.7519C3.45975 30.6193 3.52251 30.6775 5.39017 30.679C9.56791 30.679 13.7457 30.6637 17.9234 30.6897C23.1697 30.6545 28.4159 30.6805 33.6607 30.6744C37.0225 30.6744 40.3843 30.6744 43.7461 30.6744C44.1487 30.6744 44.5666 30.6193 44.9325 30.8644C45.0932 31.304 44.6998 31.232 44.5069 31.281C44.1624 31.3668 43.7981 31.327 43.4429 31.327C35.3232 31.327 27.2045 31.327 19.0868 31.327C18.0152 31.327 17.5897 31.6119 17.4534 32.4131C17.4156 32.718 17.4562 33.0275 17.5713 33.3123C17.6601 33.5727 17.8239 33.8193 17.7458 34.1165L17.7366 34.161C17.4199 34.329 17.0645 34.4103 16.7063 34.3969C11.4555 34.3969 6.20459 34.3969 0.953718 34.3969C0.629174 34.3938 0.287788 34.4091 0.0229483 34.1487Z" fill="#7DD1E9"/>
<path id="Vector_3" d="M17.7504 34.1193C17.4714 33.7865 17.2766 33.3914 17.1825 32.9673C17.1255 32.7437 17.1204 32.51 17.1676 32.2841C17.2147 32.0581 17.3129 31.846 17.4546 31.6639C17.5962 31.4818 17.7777 31.3345 17.985 31.2333C18.1922 31.1321 18.4199 31.0797 18.6506 31.0801C27.1346 31.0801 35.6187 31.0801 44.1028 31.0801C44.3982 31.0801 44.7151 31.1766 44.9891 30.9636C45.3366 30.3662 45.355 29.7121 45.355 29.0427C45.3479 21.1076 45.3479 13.172 45.355 5.23585C45.355 4.77629 45.2769 4.31672 45.5357 3.89086C45.8311 3.73001 45.8724 3.98584 45.926 4.15588C46.0317 4.50208 45.998 4.86361 45.998 5.22819C45.998 10.0281 45.998 14.8249 45.998 19.6186C45.998 21.4308 46.8507 21.9532 48.4627 21.1367C48.6158 21.057 48.7688 20.9467 48.9633 21.0019V34.1637C38.8912 34.1637 28.8196 34.1637 18.7485 34.1637C18.4133 34.1423 18.0811 34.127 17.7504 34.1193Z" fill="#BDE5ED"/>
<path id="Vector_4" d="M0.02296 34.1484L17.7412 34.1638C17.0187 35.0201 16.4431 35.93 16.192 37.0651C15.869 38.5342 16.4094 39.7382 17.1243 40.9224C17.2391 41.1139 17.4519 41.2456 17.4565 41.5014C17.1916 41.7603 16.8441 41.7419 16.5211 41.7435C13.8191 41.7542 11.1172 41.7435 8.41518 41.7435C8.08292 41.761 7.75177 41.6924 7.4538 41.5443C6.20461 41.5367 4.95388 41.5443 3.70623 41.5213C1.50025 41.4907 0.019899 40.0109 0.00459036 37.8173C-0.00459484 36.5979 0.0153057 35.3724 0.02296 34.1484Z" fill="#9587C0"/>
<path id="Vector_5" d="M17.6203 41.6714C18.6628 41.6545 19.7038 41.6239 20.7448 41.6208C23.9759 41.6147 27.2071 41.6147 30.4382 41.6208C30.7444 41.6208 31.0506 41.6591 31.3476 41.679C31.6201 41.9027 31.6109 42.2213 31.6139 42.5231C31.6293 44.0294 31.6293 45.5353 31.6139 47.0406C31.6139 47.3469 31.6139 47.6533 31.3629 47.8938C30.0923 48.4499 28.7283 48.6475 27.3826 48.8129C24.2183 49.2048 21.0073 48.9489 17.9448 48.0608C17.8281 48.015 17.7163 47.9575 17.6111 47.8892C17.3631 47.6579 17.3616 47.347 17.3585 47.0452C17.3463 45.5307 17.3463 44.0161 17.3585 42.5016C17.3585 42.2075 17.3539 41.892 17.6203 41.6714Z" fill="#7065AD"/>
<path id="Vector_6" d="M48.9633 20.9884C48.4703 21.5108 47.9054 21.8263 47.1446 21.7543C46.272 21.6701 45.7668 21.1768 45.7668 20.3144C45.7668 15.1142 45.7668 9.91399 45.7668 4.71379C45.7668 4.41967 45.8678 4.10104 45.6352 3.8345C45.3443 3.81152 45.1667 3.56183 44.9034 3.4837C43.6787 3.3397 42.4433 3.50821 41.2171 3.39638C41.1334 3.37988 41.0524 3.35151 40.9767 3.31213C39.7138 2.27965 39.5683 1.14912 40.5557 0.00634766C42.1341 0.00634766 43.7124 0.00634766 45.2907 0.00634766C47.4339 0.00634766 48.9755 1.57345 48.9755 3.7196C48.9704 9.47332 48.9663 15.2296 48.9633 20.9884Z" fill="#E5F4F6"/>
<path id="Vector_7" d="M40.5496 0.00292969C40.4829 0.216061 40.4042 0.425246 40.3139 0.62947C39.7658 1.70178 40.3261 2.48304 40.9966 3.23365C40.7012 3.49713 40.3338 3.46343 39.9817 3.46343C33.1172 3.46956 26.2523 3.46956 19.3869 3.46343C19.0363 3.46343 18.6659 3.49867 18.3796 3.21527C17.4504 2.2364 17.3861 1.16409 18.0367 0.0151873L40.5496 0.00292969Z" fill="#BDE5ED"/>
<path id="Vector_8" d="M31.3644 47.894C31.3583 45.8229 31.3527 43.7513 31.3476 41.6792C31.5711 41.4234 31.8696 41.5413 32.1314 41.5413C35.2467 41.5275 38.3605 41.5275 41.4697 41.5245C41.0349 42.4283 40.199 42.9537 39.4795 43.568C37.2218 45.4769 34.6142 46.9275 31.8022 47.8388C31.6585 47.8719 31.5118 47.8903 31.3644 47.894Z" fill="#CDDC2A"/>
<path id="Vector_9" d="M17.6203 41.6715L17.6065 47.894C16.1629 47.6473 14.8785 46.9748 13.6002 46.3223C11.5017 45.2328 9.58555 43.8229 7.92071 42.1433C7.7416 41.9641 7.54412 41.8017 7.46145 41.549C10.515 41.549 13.5701 41.5439 16.6268 41.5336C16.9054 41.5336 17.184 41.5122 17.4641 41.5015L17.6203 41.6715Z" fill="#CDDC2A"/>
<path id="Vector_10" d="M18.3796 3.21826C18.5799 3.24971 18.7818 3.27068 18.9843 3.28107C26.1722 3.28107 33.3586 3.28107 40.5435 3.28107C40.6973 3.27355 40.8505 3.25822 41.0027 3.23512V3.22593C42.0744 3.37912 43.1613 3.24738 44.2405 3.29333C44.5467 3.30559 44.8452 3.24737 45.1422 3.33929C45.3527 3.44854 45.5247 3.61959 45.6352 3.82949C45.6443 4.66895 45.6642 5.51454 45.6642 6.34941C45.6642 14.0966 45.6642 21.8428 45.6642 29.5879C45.6642 30.1593 45.6964 30.7399 44.9876 30.9559L33.0086 30.9344L17.9004 30.9145C16.6099 29.9341 16.5946 27.9182 17.8683 26.9485C19.2598 26.7631 20.6545 26.8842 22.046 26.8796C23.4728 27.0144 24.8138 26.7846 26.0064 25.9344C26.0585 25.9281 26.1114 25.936 26.1595 25.9574C27.4684 26.9653 28.9931 26.9424 30.5301 26.8872C31.1654 26.8642 31.8022 26.8627 32.436 26.8872C34.1613 26.95 35.4472 26.2913 36.1637 24.6675C36.3045 24.4807 36.5158 24.3826 36.6995 24.2478C37.1587 23.9093 37.1863 23.5232 36.8633 23.0652C36.1637 22.0726 36.1683 21.2637 36.8817 20.245C37.1587 19.8498 37.1526 19.4975 36.8082 19.1543C36.6283 19.011 36.4916 18.8207 36.4132 18.6044C36.2831 18.0207 36.4821 17.408 36.2372 16.8366C36.032 16.1457 35.5222 15.8654 34.8502 15.8593C32.1497 15.8363 29.4508 15.8302 26.7519 15.8593C26.184 15.8669 25.7033 16.0676 25.4507 16.6252C25.1598 17.6669 25.3741 18.7285 25.3267 19.7793C25.3083 20.1546 25.3619 20.533 25.2639 20.9037C25.045 21.3817 24.8307 21.0569 24.6516 20.8792C24.128 20.3354 23.7208 19.7012 23.2891 19.0869C23.0273 18.73 22.7518 18.3807 22.5022 18.0146C22.3491 17.7956 22.1639 17.575 22.291 17.2717C22.3737 17.1788 22.4703 17.0992 22.5772 17.0358C23.4116 16.4475 23.3978 15.9941 22.5267 15.484C22.3292 15.3691 22.1287 15.268 22.046 15.0336C21.9369 14.6457 21.9454 14.2341 22.0705 13.851C22.2006 13.6044 22.4762 13.563 22.6829 13.4267C23.358 12.9809 23.3335 12.3911 22.6216 12.0342C22.4211 11.9331 22.1731 11.9132 22.0598 11.6757C21.9265 11.219 21.9191 10.7347 22.0384 10.2741C22.1409 10.0029 22.3951 9.93859 22.6262 9.83749C23.1391 9.6123 23.4468 9.22474 23.4085 8.65488C23.3687 8.05899 22.9921 7.69746 22.444 7.51057C22.126 7.42167 21.7954 7.38647 21.4658 7.4064C20.5289 7.4064 19.592 7.4064 18.6551 7.4064C18.3046 7.4064 17.9387 7.44163 17.6417 7.18275C17.0554 6.27128 17.1825 5.34451 17.5805 4.41313C17.905 3.64719 17.8867 3.60583 17.06 3.6043C13.141 3.6043 9.22347 3.6043 5.30445 3.59511C4.88652 3.59511 4.4288 3.7054 4.07976 3.33622C4.34001 3.18303 4.62628 3.25656 4.89878 3.25656C9.11172 3.25656 13.3252 3.25656 17.5392 3.25656C17.8239 3.26115 18.1025 3.23205 18.3796 3.21826Z" fill="#4A3379"/>
<path id="Vector_11" d="M4.09354 3.34277L17.1534 3.37647C18.3566 3.37647 18.3781 3.39026 17.8438 4.40436C17.3508 5.33574 17.4381 6.25639 17.7565 7.19696C17.5147 7.45278 17.1901 7.37619 16.8946 7.40683C16.0542 7.49414 15.5169 7.86638 15.4158 8.49598C15.2949 9.22209 15.722 9.63264 16.3083 9.92676C16.3914 9.95991 16.467 10.0094 16.5306 10.0723C16.5943 10.1352 16.6446 10.2102 16.6788 10.2929C16.8135 12.5585 16.7339 14.8257 16.7186 17.0913C16.7186 17.6214 16.3956 18.0472 16.0894 18.4593C15.1479 19.7277 14.182 20.9777 13.2543 22.2568C12.7858 22.9048 12.3985 23.5911 12.5179 24.4443C12.7139 25.8444 13.666 26.7268 15.1525 26.8631C15.7373 26.9152 16.3236 26.8631 16.91 26.8892C17.2069 26.8984 17.5315 26.8432 17.755 27.1266C16.8946 28.4277 16.9457 29.691 17.9081 30.9165C13.3441 30.9257 8.78054 30.9364 4.21754 30.9486C3.64652 30.9486 3.38168 30.6423 3.29902 30.1291C3.27672 29.9257 3.26904 29.7209 3.27605 29.5163C3.27605 21.2504 3.27605 12.9839 3.27605 4.71686C3.28064 4.1179 3.19339 3.43315 4.09354 3.34277Z" fill="#3B296F"/>
<path id="Vector_12" d="M45.1361 3.34088C43.7583 3.2122 42.3713 3.42054 41.0027 3.22752L44.6477 3.20607C44.8146 3.20454 44.9998 3.19075 45.1361 3.34088Z" fill="#BDE5ED"/>
<path id="Vector_13" d="M25.0756 21.1125C25.0833 19.8395 25.0848 18.5665 25.1016 17.2935C25.1016 17.0239 25.0128 16.7313 25.2256 16.4893C25.5915 16.8447 25.4262 17.3027 25.4568 17.7148C25.4935 18.1927 25.4201 18.6768 25.4935 19.1471C25.7017 19.3002 25.8441 19.1394 25.9895 19.0689C27.7577 18.205 29.3896 18.4562 30.9097 19.6587C31.4001 20.0678 31.9638 20.3797 32.5707 20.5778C33.3573 20.819 34.2044 20.7673 34.9558 20.4323C36.502 20.4323 36.4699 20.4323 36.5112 21.9519C36.5296 22.6106 36.3106 22.8864 35.6662 22.8971C35.2069 22.8971 34.867 23.0962 34.8502 23.614C34.8334 24.1318 35.2054 24.2926 35.6279 24.3922C35.8713 24.4489 36.1438 24.4381 36.3122 24.6756C35.7871 26.1753 34.616 27.0684 33.0637 27.0929C31.5634 27.1159 30.0616 27.1082 28.5614 27.0929C27.5449 27.0837 26.6953 26.667 25.9834 25.9547C25.3619 25.7479 25.2011 25.1658 25.0649 24.6572C24.7756 23.4914 24.7128 22.2951 25.0756 21.1125Z" fill="#FAC739"/>
<path id="Vector_14" d="M17.7489 27.1265C16.665 27.0009 15.5643 27.2567 14.4866 26.9733C12.4689 26.4356 11.607 24.2159 12.8026 22.5156C13.8084 21.0802 14.8693 19.6816 15.9486 18.2998C16.3779 17.7624 16.602 17.0896 16.5808 16.4019C16.5655 14.366 16.5808 12.3302 16.5808 10.2928C16.6221 10.281 16.6662 10.285 16.7047 10.304C16.7431 10.3229 16.7732 10.3555 16.789 10.3954C16.9865 10.9898 16.8839 11.6056 16.8916 12.2107C16.9089 13.5332 16.9089 14.8552 16.8916 16.1767C16.8916 16.7128 17.0615 17.033 17.6249 17.1418C18.3272 17.287 18.9772 17.6194 19.5063 18.1038C20.0283 18.5633 20.7111 18.7579 21.2393 19.2006C21.4061 19.4472 21.2255 19.6295 21.1183 19.8225C19.7206 22.3348 19.987 24.5468 21.9389 26.6348C22.0567 26.7619 22.2129 26.8707 22.1792 27.0821L17.7489 27.1265Z" fill="#33C0F0"/>
<path id="Vector_15" d="M34.8823 20.5331C34.4568 21.0356 33.8613 20.9927 33.3132 20.9529C32.4201 20.8799 31.5734 20.5241 30.896 19.9372C29.2411 18.5111 27.4959 18.4253 25.639 19.4777C25.5349 19.5359 25.4476 19.6554 25.2256 19.5696V16.489C25.417 15.8762 25.8931 15.6756 26.4626 15.674C29.362 15.6633 32.263 15.6572 35.164 15.674C35.9157 15.674 36.4117 16.0662 36.4653 16.8781C36.5311 17.4188 36.479 17.9627 36.4944 18.5034C36.4987 18.5843 36.473 18.6639 36.4224 18.7271C36.1239 18.9431 35.7442 18.8205 35.4273 18.963C34.4904 19.2249 34.8716 19.9449 34.8823 20.5331Z" fill="#FEE14D"/>
<path id="Vector_16" d="M21.2653 19.303C20.5642 19.0683 19.9131 18.7046 19.3456 18.2306C18.7783 17.71 18.0628 17.3796 17.2988 17.2855C16.8288 17.2395 16.665 17.0189 16.6696 16.5379C16.691 14.4485 16.6696 12.359 16.6696 10.2695C16.8487 10.0459 17.1074 10.0168 17.3616 10.0122C18.7393 9.98459 20.1171 9.98918 21.4857 10.0122C21.7383 10.0122 21.997 10.0367 22.1884 10.245L22.2343 11.7585C22.0812 11.9837 21.8394 11.9546 21.622 11.9913C21.178 12.0679 20.829 12.2793 20.8305 12.7573C20.832 13.2352 21.1841 13.4497 21.6189 13.5462C21.8348 13.5937 22.0782 13.5707 22.2313 13.7928C22.2313 14.2411 22.2256 14.691 22.2144 15.1424C22.1991 15.5238 21.8776 15.4488 21.6572 15.4978C21.1979 15.5928 20.8091 15.7873 20.8351 16.3143C20.8611 16.8412 21.2622 17.0128 21.723 17.0802C21.9419 17.1139 22.1823 17.0909 22.3353 17.3054C22.5435 17.9718 23.1084 18.4053 23.4253 19.0012C23.4489 19.0389 23.4627 19.0818 23.4657 19.1261C23.4686 19.1705 23.4606 19.2149 23.4423 19.2554C23.4239 19.2959 23.3959 19.3312 23.3606 19.3582C23.3253 19.3852 23.2839 19.4031 23.2401 19.4102C22.5711 19.6522 21.8929 19.8498 21.2653 19.303Z" fill="#BDE5ED"/>
<path id="Vector_17" d="M21.2653 19.3032C21.8751 19.4536 22.5127 19.4499 23.1207 19.2925C23.286 19.2465 23.3916 19.1791 23.4269 19.0137L25.0741 21.1123C25.0848 21.791 25.1322 22.4726 25.0986 23.1497C25.0347 24.1639 25.3507 25.1655 25.9849 25.9592C24.9776 27.2138 23.5876 27.1632 22.1869 27.0774C19.7283 25.2361 19.3211 21.7879 21.2653 19.3032Z" fill="#52C9EE"/>
<path id="Vector_18" d="M22.1915 10.2515L16.6727 10.2775H16.6283L16.5854 10.2944C16.5045 10.2348 16.4178 10.1835 16.3267 10.1412C15.4357 9.83479 15.0331 9.25115 15.1648 8.45611C15.2842 7.74838 15.918 7.26584 16.7691 7.23061L17.7504 7.19385C19.2017 7.2061 20.6514 7.2107 22.1011 7.23061C22.8666 7.2398 23.4146 7.59213 23.632 8.35194C23.8188 8.99227 23.5585 9.4794 23.0885 9.9068C22.8283 10.155 22.4639 10.0523 22.1915 10.2515Z" fill="#E5F4F6"/>
<path id="Vector_19" d="M32.7667 11.3345C32.5769 12.7576 31.7915 13.6062 30.5393 13.741C30.0029 13.7852 29.4673 13.6473 29.0188 13.3497C28.5703 13.0521 28.235 12.612 28.0669 12.1004C27.9113 11.6795 27.8841 11.2219 27.9888 10.7855C28.0934 10.3492 28.3252 9.95377 28.6548 9.64941C29.4478 8.86509 30.3908 8.7839 31.3996 9.18065C31.6354 10.0354 32.1758 10.7003 32.7667 11.3345Z" fill="#FEE14D"/>
<path id="Vector_20" d="M32.7667 11.3343C31.8482 10.9054 31.3506 10.2145 31.3996 9.17588C31.7992 8.15106 32.4085 7.64401 33.2581 7.67465C33.6272 7.67484 33.9873 7.78935 34.2888 8.00246C34.5903 8.21558 34.8185 8.51685 34.942 8.86492C35.4212 10.023 34.5073 11.5978 32.7667 11.3343Z" fill="#FDF6B6"/>
<path id="Vector_21" d="M34.8823 20.5333C34.2991 19.6418 34.4384 19.1224 35.3416 18.8283C35.6799 18.6614 36.055 18.8391 36.3979 18.718C36.4125 18.6969 36.4319 18.6796 36.4545 18.6675L36.5127 18.6782C37.5736 19.3645 37.6257 19.8394 36.7286 20.6589C36.4653 20.8994 36.4346 22.3961 36.6888 22.6503C37.6624 23.6522 37.569 24.1562 36.3152 24.6724C35.9693 24.5989 35.6172 24.651 35.2651 24.5499C34.6757 24.3814 34.5272 23.9984 34.5823 23.4561C34.6374 22.9138 34.9665 22.681 35.5008 22.6412C35.807 22.6182 36.28 22.8342 36.3703 22.4359C36.4852 21.9334 36.4209 21.382 36.378 20.855C36.3612 20.6482 36.1009 20.6804 35.9279 20.6788C35.5666 20.6804 35.2099 20.7064 34.8823 20.5333Z" fill="#F09121"/>
<path id="Vector_22" d="M22.3384 17.3179C22.0603 17.3209 21.7822 17.3076 21.5056 17.2781C20.927 17.1877 20.555 16.8032 20.5871 16.2487C20.6192 15.6941 20.9698 15.3296 21.5822 15.305C21.8041 15.305 22.0414 15.3571 22.2205 15.1519C22.2619 15.1825 22.3001 15.23 22.3445 15.2376C22.9446 15.3525 23.4253 15.6084 23.4024 16.31C23.3825 16.9595 22.8941 17.1923 22.3384 17.3179Z" fill="#53C8EE"/>
<path id="Vector_23" d="M22.2313 13.8039C22.0032 13.7917 21.772 13.7963 21.547 13.7641C20.9346 13.6768 20.5335 13.28 20.584 12.6918C20.6284 12.1602 21.0035 11.7727 21.6281 11.791C21.8302 11.791 22.0338 11.7773 22.2404 11.7681C22.8681 11.7681 23.3534 12.0086 23.3932 12.6872C23.4361 13.4623 22.8819 13.7043 22.2313 13.8039Z" fill="#53C8EE"/>
<path id="Vector_24" d="M36.5097 18.6783L36.4515 18.6676L36.4653 16.8799C36.5985 17.4773 36.5127 18.0778 36.5097 18.6783Z" fill="#F09121"/>
<path id="Vector_25" d="M36.3948 18.7181C36.0626 18.9464 35.6891 18.7871 35.3385 18.8284C35.6692 18.5956 36.0397 18.7335 36.3948 18.7181Z" fill="#F09121"/>
</g>
<defs>
<clipPath id="clip0_8_314">
<rect width="49" height="49" fill="white"/>
</clipPath>
</defs>
</svg>
