<svg width="22" height="20" viewBox="0 0 22 20" fill="none" xmlns="http://www.w3.org/2000/svg">
<path id="Vector" d="M11 0C10.5889 0.463528 10.0447 0.94275 9.4583 1.46182C8.68982 2.14194 7.85437 2.87818 7.19185 3.63857C6.52942 4.39891 6.05188 5.17855 5.94289 5.91781C5.83908 6.62156 6.03052 7.31181 6.78049 8.0765H15.2196C15.9695 7.31181 16.161 6.62156 16.0572 5.91785C15.9481 5.17855 15.4706 4.39891 14.8081 3.63861C14.1456 2.87827 13.3102 2.14203 12.5416 1.46186C11.9553 0.942793 11.4111 0.463528 11 0ZM0.733333 1.76398C0 2.46537 0 3.16675 0 3.86814H0.320833V6.98054H0V7.76959H0.320833V20H1.14583V7.76959H1.46667V6.98054H1.14583V3.86814H1.46667C1.46667 3.16675 1.46667 2.46537 0.733333 1.76398ZM21.2667 1.76398C20.5333 2.46537 20.5333 3.16675 20.5333 3.86814H20.8542V6.98054H20.5333V7.76959H20.8542V20H21.6792V7.76959H22V6.98054H21.6792V3.86814H22C22 3.16675 22 2.46537 21.2667 1.76398ZM4.4 7.76959C3.66667 8.47098 2.93333 9.17237 2.93333 9.87375V10.882H5.86667V9.87375C5.86667 9.17237 5.13333 8.47098 4.4 7.76959ZM17.6 7.76959C16.8667 8.47098 16.1333 9.17237 16.1333 9.87375V10.882H19.0667V9.87375C19.0667 9.17237 18.3333 8.47098 17.6 7.76959ZM7.0125 8.86551V9.47922H14.9875V8.86551H7.0125ZM7.0125 10.2683V20H8.8V14.0821C8.8 13.3807 10.2667 11.9779 11 11.2765C11.7333 11.9779 13.2 13.3807 13.2 14.0821V20H14.9875V10.2683H7.0125ZM2.6125 11.6711V20H6.1875V11.6711H2.6125ZM15.8125 11.6711V20H19.3875V11.6711H15.8125ZM4.4 11.9779C4.4 11.9779 5.13333 12.3389 5.13333 12.6793V14.0821H3.66667V12.6793C3.66667 12.3389 4.4 11.9779 4.4 11.9779ZM17.6 12.2174C17.6 12.2174 18.3333 12.5783 18.3333 12.9188V14.3216H16.8667V12.9188C16.8667 12.5783 17.6 12.2174 17.6 12.2174ZM4.4 14.7834C4.4 14.7834 5.13333 15.1444 5.13333 15.4848V16.8876H3.66667V15.4848C3.66667 15.1444 4.4 14.7834 4.4 14.7834ZM17.6 14.7834C17.6 14.7834 18.3333 15.1444 18.3333 15.4848V16.8876H16.8667V15.4848C16.8667 15.1444 17.6 14.7834 17.6 14.7834ZM4.4 17.589C4.4 17.589 5.13333 17.9499 5.13333 18.2904V19.6931H3.66667V18.2904C3.66667 17.9499 4.4 17.589 4.4 17.589ZM17.6 17.589C17.6 17.589 18.3333 17.9499 18.3333 18.2904V19.6931H16.8667V18.2904C16.8667 17.9499 17.6 17.589 17.6 17.589Z" fill="white"/>
</svg>
