<svg width="43" height="28" viewBox="0 0 43 28" fill="none" xmlns="http://www.w3.org/2000/svg">
<path id="Vector" d="M23.0584 28C18.8359 28 16.1613 24.3605 12.1657 24.9222C9.11028 25.3565 2.48877 27.2661 0.422078 24.0834C-1.38526 21.2902 3.0642 17.5983 5.22814 15.9807C6.63836 14.9323 8.73748 14.3931 10.0099 13.3073C11.485 12.0567 11.8659 9.56293 13.0005 8.0652C15.1572 5.26592 18.3691 3.31325 22.0048 2.59099C24.3065 2.21656 25.9761 3.01785 28.132 3.33986C30.2878 3.66187 32.0384 2.26897 33.8052 1.50513C35.572 0.741287 37.6144 -0.329572 39.6081 0.0972814C40.6052 0.314291 41.4892 0.845907 42.1076 1.6005C42.726 2.35509 43.0402 3.28537 42.9959 4.23101C42.5744 7.83306 37.5577 9.83253 37.2011 13.3896C36.7958 17.3586 37.0633 21.0955 33.7728 24.2557C31.0415 26.8842 26.9973 28 23.0584 28ZM33.5945 11.525C32.395 7.67579 27.8645 4.94243 23.3988 4.74023C18.2442 4.50809 14.9456 7.92292 13.4382 11.9293C12.6124 13.894 12.4265 16.0389 12.9032 18.1C13.159 19.1062 13.7215 20.0236 14.5242 20.7435C15.7156 21.5523 16.7044 20.6536 18.066 19.9946C23.4718 17.5758 28.8533 14.9622 33.5945 11.5474V11.525ZM34.405 14.3033C28.8208 17.4335 23.2124 20.3691 17.4257 23.1773C20.3839 26.1728 26.1139 25.9032 29.6475 23.9262C33.4567 21.8443 34.7291 18.0551 34.405 14.3033ZM9.88833 15.6512C7.81353 16.6846 2.45634 19.8673 2.59412 22.3161C2.74001 25.0121 10.634 22.8104 12.2387 22.406C10.5984 20.4904 9.76359 18.0911 9.88833 15.6512ZM36.0826 9.41317C37.5091 8.21499 41.8207 4.58298 39.9324 2.62095C38.044 0.658927 33.0353 3.66935 31.4224 4.64288L36.0826 9.41317Z" fill="white"/>
</svg>
